<?xml version="1.0" standalone="no"?>
<!DOCTYPE svg PUBLIC "-//W3C//DTD SVG 20010904//EN"
 "http://www.w3.org/TR/2001/REC-SVG-20010904/DTD/svg10.dtd">
<svg version="1.0" xmlns="http://www.w3.org/2000/svg"
 width="4428.000000pt" height="4227.000000pt" viewBox="0 0 4428.000000 4227.000000"
 preserveAspectRatio="xMidYMid meet">

<g transform="translate(0.000000,4227.000000) scale(0.100000,-0.100000)"
fill="#000000" stroke="none">
<path d="M14361 40527 c-43 -14 -134 -97 -167 -152 -13 -24 -29 -70 -35 -104
-12 -65 -24 -74 -53 -42 -25 27 -71 44 -101 37 -35 -9 -63 -60 -71 -128 -6
-52 -9 -58 -30 -58 -12 0 -37 -12 -54 -27 -32 -26 -32 -28 -26 -88 l6 -61 -35
-13 c-64 -23 -73 -54 -49 -168 5 -29 3 -34 -21 -43 -32 -12 -69 -3 -157 41
-64 32 -103 36 -135 14 -37 -26 -45 -70 -28 -165 20 -114 19 -196 -3 -240 -14
-29 -26 -37 -67 -48 -27 -7 -84 -16 -125 -19 -75 -5 -76 -5 -245 61 -94 37
-209 90 -257 117 -213 122 -352 129 -502 28 -145 -98 -263 -90 -597 41 -150
59 -207 89 -260 136 -93 83 -321 224 -362 224 -11 0 -41 -13 -66 -29 -120 -77
-259 -121 -336 -107 -26 5 -54 23 -90 57 -30 28 -61 49 -74 49 -29 0 -198 -63
-282 -106 -114 -57 -147 -101 -281 -369 -111 -220 -136 -293 -148 -419 -13
-131 -37 -201 -112 -322 -34 -54 -77 -125 -96 -156 -41 -67 -55 -74 -277 -132
-158 -42 -225 -74 -269 -129 -43 -53 -43 -127 -2 -210 l28 -58 -23 -27 c-13
-15 -46 -51 -74 -80 l-50 -53 -6 -97 c-4 -53 -7 -145 -8 -203 l-1 -106 -91
-99 c-168 -182 -188 -227 -196 -439 -3 -77 -9 -147 -14 -156 -6 -12 -31 -18
-101 -23 -51 -4 -165 -18 -253 -32 l-159 -26 -24 28 c-13 16 -51 71 -85 122
-49 74 -69 96 -104 113 -47 23 -31 23 -319 3 l-81 -6 -33 44 c-101 131 -153
167 -258 179 -114 13 -125 16 -150 54 -33 47 -78 168 -112 297 -34 131 -62
178 -167 280 -89 86 -194 157 -292 198 -88 36 -122 43 -198 42 -71 -1 -72 -1
-148 101 -51 67 -60 109 -52 229 6 94 -6 145 -63 259 -44 86 -158 258 -225
337 -42 49 -67 108 -89 214 -9 38 -27 45 -152 58 -165 16 -174 18 -174 40 0
11 29 65 65 122 36 56 65 105 65 109 0 5 -29 61 -64 126 l-64 118 -114 66
c-62 36 -137 81 -167 99 -92 59 -162 46 -301 -55 -83 -62 -174 -104 -239 -112
l-52 -6 7 40 c6 37 3 44 -46 102 -28 34 -63 66 -76 72 -14 5 -70 9 -125 9
-130 0 -153 -11 -174 -85 -19 -63 -26 -65 -126 -41 -51 11 -63 11 -115 -5 -81
-26 -91 -24 -159 21 -33 22 -68 40 -78 40 -26 0 -194 -116 -199 -138 -3 -10 1
-30 8 -43 26 -46 20 -52 -48 -43 -82 11 -132 8 -166 -10 -31 -16 -198 -186
-260 -264 -34 -44 -39 -58 -51 -143 l-13 -95 -59 -49 c-33 -28 -62 -60 -65
-71 -7 -28 119 -471 154 -539 13 -27 40 -74 59 -104 28 -44 34 -61 30 -88 -11
-64 -57 -137 -199 -315 -32 -40 -58 -131 -58 -205 l0 -53 -105 -70 c-57 -38
-109 -79 -115 -90 -14 -26 -5 -42 68 -124 54 -61 60 -73 96 -193 79 -266 175
-505 221 -553 13 -14 26 -36 30 -50 6 -27 -26 -190 -49 -243 -28 -65 -96 -109
-191 -122 -66 -10 -98 -27 -132 -72 -27 -35 -28 -41 -28 -148 0 -107 -2 -115
-43 -220 l-43 -110 111 -317 110 -316 -5 -73 c-3 -41 -8 -87 -11 -103 -4 -27
11 -44 156 -191 88 -88 160 -166 160 -173 0 -7 -66 -56 -148 -110 -144 -96
-149 -98 -287 -136 -146 -39 -175 -55 -175 -91 0 -12 30 -68 66 -125 l67 -103
-13 -68 -13 -67 152 -241 c243 -387 261 -413 323 -472 33 -33 92 -74 137 -98
43 -22 82 -48 85 -57 3 -8 6 -55 6 -102 0 -103 16 -136 82 -178 55 -35 175
-76 199 -69 21 7 78 78 158 198 28 42 56 77 61 77 6 0 32 -22 58 -50 44 -46
52 -50 94 -50 82 0 136 57 183 193 10 27 24 51 32 54 19 8 102 -73 164 -161
47 -67 121 -235 134 -308 4 -20 18 -46 31 -59 22 -21 29 -22 133 -15 l109 7
31 -88 c75 -217 111 -314 126 -345 27 -52 74 -96 160 -148 44 -27 93 -65 109
-85 44 -57 114 -85 213 -85 81 0 82 0 107 -32 13 -18 37 -71 52 -118 15 -47
34 -105 42 -130 9 -29 33 -63 67 -96 50 -50 53 -55 64 -129 10 -70 9 -79 -8
-103 -29 -41 -78 -143 -85 -178 l-7 -32 -97 -7 c-104 -8 -133 -18 -172 -59
-35 -38 -39 -124 -10 -236 46 -183 78 -225 301 -404 l176 -141 80 -13 c82 -13
251 -65 313 -97 55 -28 133 -99 174 -158 24 -34 56 -108 87 -197 27 -78 76
-208 108 -289 104 -260 130 -390 106 -527 -22 -128 3 -289 51 -320 22 -15 28
-15 74 2 63 22 70 18 128 -66 32 -47 42 -71 40 -94 -5 -49 -31 -56 -210 -56
-149 0 -158 -1 -184 -23 l-26 -23 17 -134 c20 -163 21 -167 48 -184 18 -11 52
-12 181 -5 l158 8 62 -53 c33 -30 108 -86 166 -124 137 -91 195 -146 209 -197
21 -76 15 -98 -70 -255 -175 -327 -194 -386 -185 -580 7 -152 52 -506 68 -537
13 -26 23 -30 120 -46 l73 -13 47 -114 c26 -63 47 -121 48 -128 0 -8 -25 -45
-55 -84 -30 -38 -55 -79 -55 -89 0 -25 58 -87 200 -214 74 -66 162 -162 263
-285 83 -102 192 -225 243 -275 86 -85 95 -98 164 -239 73 -147 74 -150 80
-245 5 -81 10 -105 33 -143 50 -87 129 -134 342 -208 l130 -45 0 -66 c0 -89
29 -131 138 -204 72 -48 91 -56 158 -65 54 -8 115 -8 204 0 204 16 183 22 239
-72 l49 -82 -19 -65 c-23 -81 -32 -347 -13 -393 17 -43 73 -86 132 -102 30 -9
146 -20 272 -26 121 -7 231 -15 244 -19 19 -6 35 -34 85 -156 52 -126 81 -179
183 -331 86 -129 154 -246 232 -401 125 -250 89 -216 316 -302 l130 -49 68
-114 c37 -62 102 -176 145 -253 68 -124 88 -151 177 -240 55 -55 206 -186 335
-290 293 -236 483 -421 530 -517 31 -64 32 -71 26 -150 -18 -251 -18 -275 -3
-329 21 -70 313 -529 348 -546 13 -6 79 -21 146 -32 67 -11 161 -34 210 -50
81 -28 93 -35 153 -98 70 -73 138 -171 203 -291 39 -73 46 -80 266 -254 220
-174 227 -181 253 -241 15 -34 37 -100 50 -147 20 -76 28 -90 73 -135 27 -28
100 -81 160 -119 61 -38 120 -78 133 -89 29 -27 77 -114 138 -250 l48 -108
194 -177 194 -177 88 -175 c88 -174 89 -176 232 -335 81 -90 186 -193 239
-236 90 -73 100 -78 249 -129 260 -90 371 -174 645 -483 93 -106 336 -317 393
-343 26 -11 98 -38 159 -59 l113 -39 24 19 c14 11 53 41 86 68 l62 47 86 0
c177 -1 280 -39 502 -187 148 -99 230 -177 262 -250 18 -42 20 -60 15 -182 -5
-137 -28 -254 -67 -346 -20 -47 -111 -169 -205 -275 l-67 -75 7 -73 c5 -52 32
-149 95 -337 l88 -265 215 -413 c118 -226 249 -488 292 -582 80 -177 89 -191
232 -343 l88 -93 170 -29 c265 -45 370 -86 525 -205 68 -52 107 -101 151 -188
64 -126 72 -155 74 -277 2 -173 15 -204 132 -314 135 -129 169 -154 586 -436
318 -215 450 -297 849 -526 l473 -270 80 -160 c189 -374 354 -743 385 -859 23
-86 64 -188 156 -388 35 -76 64 -143 64 -147 0 -4 -159 -76 -353 -159 l-353
-151 -85 -78 -86 -77 -189 -59 c-104 -33 -190 -60 -191 -61 -8 -5 74 -104 86
-105 7 0 91 25 185 55 l172 55 88 79 89 80 387 166 c351 150 389 169 400 195
11 27 7 41 -55 172 -104 220 -163 362 -191 462 -14 49 -59 166 -100 258 -123
277 -373 792 -392 808 -10 8 -116 71 -235 139 l-216 125 -16 67 c-23 102 -22
106 28 120 23 6 47 13 54 15 20 5 41 57 59 146 16 76 17 95 5 167 -9 55 -11
117 -6 194 l7 112 -34 44 c-18 24 -37 49 -42 56 -24 32 47 135 111 162 34 14
28 14 206 -24 15 -3 27 -2 27 2 0 4 -10 40 -21 80 l-22 74 -53 11 c-53 11 -98
39 -167 104 -38 34 -39 37 -32 85 6 42 4 51 -16 69 -12 12 -45 26 -73 32 -46
9 -54 15 -75 54 -41 79 -61 90 -162 96 -89 6 -89 6 -132 48 -24 24 -57 46 -73
51 -25 6 -30 13 -34 51 -5 47 -7 48 -92 85 l-58 25 0 69 c0 87 12 100 72 81
37 -13 41 -12 55 5 7 11 13 38 12 60 -1 22 2 83 6 136 l8 97 -67 22 c-36 12
-66 24 -66 28 0 3 11 17 24 31 44 46 125 191 137 247 7 30 15 54 18 54 4 0 23
-14 43 -30 35 -29 42 -31 120 -30 46 1 99 0 118 -2 35 -3 35 -3 45 49 14 75
19 77 118 65 108 -12 145 -34 183 -107 28 -53 31 -56 104 -80 55 -19 121 -30
249 -42 162 -15 178 -15 237 0 34 9 74 17 87 17 28 0 77 50 77 78 0 50 23 93
60 117 45 29 65 82 57 153 -6 59 -27 77 -108 97 -51 13 -84 29 -126 61 -32 25
-71 46 -92 49 -73 12 -81 16 -98 48 -22 41 -31 241 -13 300 6 21 27 55 47 75
32 31 35 39 30 75 -3 22 -20 61 -38 86 -24 35 -32 56 -31 87 0 35 -4 44 -24
53 -13 6 -24 14 -24 18 0 5 22 41 49 82 l48 74 93 19 c119 24 150 40 150 77 0
38 -21 55 -200 163 -85 51 -217 139 -292 195 -124 91 -143 102 -200 112 -58
10 -148 4 -223 -15 -25 -6 -55 18 -55 44 0 9 11 41 25 70 14 30 25 59 25 66 0
7 -16 52 -36 101 -27 67 -51 106 -98 160 -40 46 -66 85 -70 107 -10 52 -58
104 -109 116 -31 8 -57 25 -89 59 -25 26 -58 58 -72 70 -23 19 -26 28 -21 56
6 28 0 41 -37 92 -25 33 -66 79 -93 103 -39 34 -55 42 -87 42 -79 0 -137 42
-168 121 -24 61 -121 180 -178 218 -21 14 -58 42 -83 62 -24 20 -82 57 -129
82 -47 26 -94 53 -105 61 -34 25 -5 39 85 40 75 1 84 3 104 27 12 14 50 41 84
59 34 18 78 51 97 74 19 23 41 48 48 57 11 13 38 15 158 15 l144 -1 72 -43
c39 -23 83 -42 97 -42 33 0 54 40 62 117 l6 58 79 58 c75 56 98 87 64 87 -33
0 -159 57 -196 88 -21 18 -56 63 -78 98 l-39 65 19 39 c10 21 23 68 28 103 11
74 33 122 91 196 35 44 40 55 29 65 -234 212 -381 315 -537 377 -53 21 -103
39 -110 39 -27 0 -131 60 -151 87 -12 15 -41 52 -64 82 -98 125 -109 153 -82
201 22 38 18 126 -8 206 -18 55 -37 86 -88 145 -162 186 -212 273 -234 402
-18 112 -25 126 -99 205 l-66 69 -137 6 c-133 6 -469 50 -482 62 -7 8 9 18 98
65 104 56 112 108 28 188 l-35 34 19 71 c25 95 24 103 -12 296 -35 186 -36
274 -2 319 10 13 53 43 96 66 108 57 151 101 198 203 57 124 72 141 158 181
42 19 106 54 142 78 l66 44 81 -10 c45 -6 100 -17 124 -26 24 -8 89 -19 146
-25 98 -9 110 -13 224 -70 l121 -61 78 26 c103 34 153 33 247 -5 64 -26 100
-33 213 -42 l137 -11 47 42 c72 64 107 57 171 -33 l21 -30 49 14 c27 8 70 16
95 19 59 5 79 -13 79 -74 0 -56 27 -86 139 -154 62 -37 94 -50 122 -50 36 0
41 -4 79 -60 l41 -60 70 6 70 7 38 -37 c46 -45 55 -42 124 33 28 33 49 66 56
96 6 25 15 45 19 45 4 0 21 -9 37 -20 40 -27 104 -26 139 1 15 12 50 55 77 96
57 84 88 103 167 103 54 0 76 16 87 62 13 51 22 53 244 53 186 0 210 2 246 20
30 15 43 30 53 60 42 123 44 126 86 152 22 14 58 41 79 59 20 19 41 34 46 34
5 0 19 -16 31 -36 18 -29 21 -43 15 -77 -15 -86 -12 -110 15 -124 33 -17 142
-16 184 1 20 8 51 37 75 70 39 52 82 79 99 61 4 -3 9 -47 12 -97 5 -95 3 -91
60 -118 12 -6 14 -24 12 -83 -3 -73 7 -112 32 -129 6 -4 34 -8 63 -8 65 0 142
-16 167 -35 19 -14 19 -17 3 -84 -34 -139 -21 -202 48 -231 37 -16 49 -28 65
-64 13 -30 32 -53 59 -70 45 -29 49 -37 50 -129 1 -38 5 -76 11 -86 14 -28 71
-50 167 -67 129 -23 145 -18 233 76 l75 80 76 -18 c52 -12 95 -30 141 -60 l65
-43 7 -101 7 -102 51 -70 c45 -62 53 -80 65 -151 7 -44 21 -111 31 -150 l18
-70 60 -6 c90 -9 102 -18 110 -89 4 -33 12 -65 20 -70 7 -6 53 -17 103 -25 50
-7 95 -16 100 -19 5 -4 22 -43 36 -87 31 -91 30 -160 0 -219 l-17 -33 -154 6
c-85 4 -154 3 -154 -2 0 -4 16 -25 35 -46 20 -20 47 -59 60 -85 32 -63 50 -80
88 -81 18 0 41 -4 51 -8 18 -7 17 -9 -12 -26 -18 -11 -32 -25 -32 -32 0 -7 26
-39 58 -71 48 -50 66 -61 108 -70 59 -13 91 -6 156 31 49 29 138 57 179 57 42
0 72 -17 99 -57 27 -40 88 -72 136 -73 41 0 96 59 135 146 l29 63 82 -45 c46
-25 106 -57 135 -71 l52 -27 6 -65 c8 -94 23 -163 43 -199 9 -17 76 -77 147
-133 72 -56 174 -140 227 -185 l98 -83 -98 -111 c-53 -62 -99 -116 -100 -121
-2 -5 17 -34 43 -64 46 -54 47 -56 40 -105 -8 -55 -8 -54 57 -63 l37 -6 30 65
c25 53 34 64 54 64 32 0 54 -26 65 -77 12 -54 92 -130 178 -172 60 -29 74 -44
74 -81 0 -25 52 -66 94 -74 48 -9 100 14 121 54 9 18 32 73 52 123 37 96 45
107 79 107 12 0 33 9 48 21 25 20 26 23 26 135 l0 114 49 0 c27 0 65 -7 84
-15 44 -18 82 -19 141 -3 43 11 45 11 88 -24 61 -50 80 -58 135 -58 l48 -1
-34 -29 c-72 -61 -90 -126 -51 -185 23 -35 25 -66 8 -148 -12 -59 -12 -59 15
-83 16 -13 41 -24 57 -24 26 0 90 -42 90 -59 0 -4 -25 -13 -55 -20 -41 -9 -65
-22 -91 -49 -110 -114 -158 -355 -98 -497 73 -173 87 -214 92 -271 4 -52 1
-66 -20 -100 -84 -132 -102 -218 -61 -286 11 -18 37 -59 56 -92 42 -68 52
-120 42 -212 -6 -54 -9 -64 -23 -60 -22 7 -406 34 -602 42 -125 5 -160 9 -180
24 -62 43 -114 62 -171 63 -58 0 -78 -7 -184 -69 -49 -29 -52 -29 -205 -29
-173 0 -222 -12 -317 -80 -116 -83 -206 -121 -247 -105 -14 5 -35 28 -46 50
-26 51 -85 117 -121 136 -16 8 -68 18 -116 23 -48 5 -182 32 -298 59 -115 28
-228 53 -250 57 -22 3 -94 25 -160 48 -152 51 -267 62 -332 29 -52 -27 -128
-110 -199 -220 -32 -48 -91 -138 -133 -200 -147 -218 -191 -329 -191 -478 0
-141 40 -221 198 -399 109 -122 106 -109 106 -400 l1 -250 52 -111 c28 -61 63
-149 78 -195 25 -80 26 -91 20 -214 -6 -107 -4 -145 12 -215 15 -71 18 -130
18 -360 0 -254 -2 -281 -23 -355 -31 -109 -55 -155 -112 -213 -116 -118 -269
-207 -435 -252 -172 -47 -285 -124 -313 -211 -23 -72 -64 -469 -60 -583 4
-138 12 -154 131 -254 48 -41 93 -86 101 -100 7 -15 16 -59 19 -99 12 -149 47
-178 236 -198 259 -27 324 -65 411 -240 16 -33 33 -74 36 -91 7 -36 5 -39 -91
-110 -33 -24 -82 -70 -108 -102 -70 -84 -97 -147 -108 -255 -10 -109 -31 -170
-62 -185 -12 -6 -44 -13 -72 -16 -65 -8 -149 -49 -176 -87 -47 -66 -34 -135
44 -237 82 -106 80 -99 68 -311 -6 -103 -11 -197 -11 -209 0 -16 -15 -32 -55
-57 -88 -57 -119 -146 -90 -258 17 -65 25 -80 110 -192 68 -91 214 -330 253
-413 18 -41 28 -89 39 -186 7 -72 16 -157 20 -189 6 -58 6 -58 -36 -101 -75
-76 -75 -137 0 -291 26 -55 53 -129 60 -164 15 -77 49 -120 114 -145 55 -21
79 -63 88 -150 7 -67 22 -88 87 -121 134 -68 180 -136 180 -263 0 -48 6 -86
16 -108 36 -75 252 -236 509 -379 177 -99 264 -131 382 -141 78 -7 81 -11 99
-89 25 -110 114 -185 221 -185 48 0 135 -36 177 -73 33 -28 39 -41 51 -105 18
-95 60 -172 147 -268 39 -44 121 -146 183 -229 62 -82 134 -170 160 -195 26
-25 86 -90 135 -145 48 -55 142 -149 210 -210 91 -81 159 -155 262 -283 76
-96 138 -178 138 -183 0 -6 -21 -7 -47 -5 -175 19 -187 18 -229 -10 -117 -81
-237 -152 -249 -148 -15 6 -31 44 -40 96 -8 49 -63 97 -145 127 -36 13 -78 36
-93 50 -15 14 -57 82 -92 152 -36 70 -83 150 -105 178 -70 89 -227 191 -293
191 -15 0 -50 -12 -78 -26 -28 -14 -52 -24 -53 -22 -2 2 -42 78 -89 169 -48
92 -94 172 -102 179 -8 7 -82 27 -163 45 -130 28 -147 34 -145 51 2 10 8 54
14 96 14 92 1 139 -58 208 -45 52 -170 146 -261 197 -76 41 -201 163 -317 309
-84 104 -106 121 -178 136 -49 10 -130 0 -212 -27 -18 -5 -25 4 -52 62 -18 37
-35 91 -38 118 -9 76 -22 108 -58 143 -37 35 -75 52 -119 52 -18 0 -51 9 -75
21 -51 25 -173 137 -231 212 l-42 54 -216 83 c-213 81 -217 82 -281 76 -36 -4
-70 -8 -77 -9 -6 -1 -12 11 -14 26 -3 20 12 54 52 118 53 87 63 118 50 153 -3
8 -63 47 -133 86 l-128 72 -77 156 c-71 146 -77 163 -87 252 -6 52 -9 121 -6
153 6 66 5 67 -117 220 -72 91 -82 100 -223 186 -161 98 -194 108 -230 69 -11
-13 -57 -78 -102 -145 -46 -68 -84 -123 -86 -123 -1 0 -40 39 -86 86 -46 47
-115 109 -153 137 l-68 51 -287 54 c-157 29 -329 56 -381 59 -86 4 -99 2 -140
-19 -83 -44 -168 -178 -260 -408 -23 -57 -44 -108 -46 -112 -3 -4 -36 27 -75
70 -47 51 -89 86 -127 106 -55 28 -56 28 -40 5 8 -13 31 -35 51 -49 20 -14 68
-61 108 -105 40 -44 89 -87 109 -96 20 -9 48 -30 62 -47 21 -26 28 -29 38 -18
7 10 8 16 0 21 -18 11 -11 49 29 151 83 212 153 336 205 364 36 19 130 9 434
-48 l273 -52 57 -44 c52 -40 90 -78 235 -234 50 -53 71 -62 99 -39 9 6 59 76
113 154 68 101 102 143 116 143 10 0 63 -27 116 -60 85 -52 108 -72 169 -150
l71 -89 7 -122 c9 -166 17 -196 95 -355 102 -210 106 -215 216 -276 52 -29 95
-59 95 -67 0 -8 -21 -48 -47 -89 l-46 -75 13 -66 c16 -85 34 -127 58 -140 13
-7 46 -5 114 6 l95 16 178 -69 179 -69 121 -120 c132 -133 207 -181 295 -192
27 -3 55 -12 61 -19 6 -8 13 -41 14 -73 3 -50 13 -79 64 -179 70 -136 84 -148
146 -121 73 32 161 52 198 45 30 -6 47 -21 101 -91 36 -46 114 -133 173 -192
84 -85 127 -120 193 -156 103 -58 207 -140 233 -186 20 -33 20 -34 -1 -135
-11 -55 -24 -110 -27 -122 -4 -12 0 -28 12 -42 14 -18 53 -30 193 -60 l174
-38 94 -180 c51 -98 101 -187 109 -196 23 -26 55 -22 123 12 33 17 70 30 84
30 29 0 134 -69 174 -115 17 -18 62 -96 102 -173 75 -148 123 -208 188 -235
20 -9 58 -25 83 -35 41 -17 47 -24 53 -58 11 -60 52 -121 100 -149 73 -43 91
-38 267 76 l105 69 165 -1 c95 0 179 4 199 10 54 18 284 25 385 12 74 -9 93
-15 108 -33 10 -13 57 -78 105 -145 48 -66 126 -166 173 -220 77 -88 102 -109
233 -192 134 -85 164 -113 135 -123 -13 -4 166 -78 190 -78 28 0 230 126 279
173 24 23 63 77 87 119 64 111 94 125 185 93 23 -8 52 -15 64 -15 36 0 83 -33
132 -93 26 -32 58 -60 72 -64 31 -7 129 40 188 91 38 33 39 36 38 97 -1 101
-76 238 -157 288 -26 16 -40 35 -56 81 -12 33 -33 73 -46 89 -14 16 -25 37
-25 47 0 11 19 54 43 97 l42 78 101 43 c123 53 147 59 204 48 59 -11 95 1 110
39 11 26 10 43 -8 117 -12 48 -31 98 -42 112 -11 14 -29 44 -40 67 -12 27 -31
48 -52 59 -18 9 -48 28 -65 42 -31 23 -33 28 -33 91 0 36 -5 83 -11 105 -9 34
-8 41 11 61 12 12 35 51 51 86 17 35 37 72 46 81 18 20 63 223 62 283 0 52
-13 69 -85 105 -73 37 -88 37 -132 3 l-36 -27 -85 23 c-94 25 -130 49 -176
120 -28 43 -34 47 -88 55 -52 7 -57 11 -57 33 0 34 -11 51 -70 111 -59 60 -88
77 -156 92 -27 6 -52 16 -56 23 -13 20 -8 69 12 131 28 83 26 112 -11 148 -26
26 -32 42 -38 99 -4 44 -14 75 -25 88 -17 19 -17 23 -2 61 20 50 20 81 1 144
-8 27 -15 65 -15 85 -1 20 -7 47 -15 61 -27 47 -19 67 34 95 48 24 81 57 81
82 0 6 -18 32 -40 57 -22 26 -42 62 -46 81 -11 59 0 147 25 199 25 51 31 53
106 31 26 -8 82 29 112 74 43 64 48 121 18 226 -5 17 4 25 61 49 110 48 124
74 80 145 -14 21 -35 81 -47 132 -16 70 -40 129 -92 229 -38 74 -74 153 -78
175 -4 22 -4 141 2 265 9 221 9 226 39 285 18 36 44 121 64 210 l34 150 47 41
c36 32 49 52 56 85 5 24 24 84 42 133 l32 89 96 73 97 73 178 -9 c99 -6 282
-14 407 -20 258 -11 242 -13 440 78 83 39 90 40 143 32 36 -6 63 -6 75 0 20
11 34 45 31 75 -1 11 -9 85 -18 165 -8 80 -19 244 -24 365 -10 258 -44 600
-92 914 l-12 83 47 137 c26 75 58 195 71 266 14 72 35 182 47 245 l22 115 96
67 c179 125 411 334 411 371 0 20 -84 128 -174 223 -42 45 -76 88 -75 95 0 13
211 198 309 272 58 44 342 215 495 300 66 36 224 114 350 172 127 59 279 132
338 161 136 69 139 76 102 191 -15 46 -38 99 -51 119 -14 20 -23 42 -20 49 2
6 26 18 53 25 26 7 59 20 73 29 44 28 254 49 312 32 45 -14 89 1 127 43 14 14
31 26 38 26 25 0 121 -104 142 -153 11 -26 24 -47 29 -47 4 0 32 -31 60 -69
92 -120 116 -141 167 -141 l45 0 0 -53 c0 -40 -4 -55 -19 -64 -10 -7 -32 -38
-48 -70 -24 -51 -28 -69 -28 -148 0 -104 22 -188 61 -234 23 -27 32 -31 79
-31 47 0 61 -6 128 -51 88 -59 93 -71 82 -186 l-7 -74 69 -65 c116 -111 176
-139 219 -103 80 67 214 372 273 623 34 148 36 150 281 164 111 6 164 14 187
26 32 16 63 61 63 90 0 9 -23 59 -51 113 -36 68 -54 117 -61 163 -10 66 -26
106 -59 149 -13 16 -19 40 -19 75 0 67 -25 107 -86 137 -75 36 -121 83 -129
131 -4 22 -20 80 -37 127 -44 130 -50 172 -52 346 -2 178 -9 207 -83 309 -20
28 -42 70 -49 94 -8 24 -28 57 -49 76 -33 31 -35 37 -35 98 0 36 -5 71 -12 81
-21 26 -88 44 -129 33 -47 -12 -65 -4 -90 38 -13 23 -33 39 -57 47 -20 7 -48
20 -61 30 -31 25 -63 24 -86 -1 -10 -11 -29 -20 -42 -20 -22 0 -23 4 -25 68
-1 37 0 84 1 105 2 25 -5 51 -19 75 -19 32 -20 40 -10 73 25 75 -17 201 -76
229 -17 8 -41 30 -53 48 -26 39 -79 67 -113 59 -14 -4 -37 -18 -53 -32 -27
-26 -27 -29 -21 -99 4 -40 4 -80 0 -89 -11 -29 -33 -19 -55 24 -20 41 -20 43
-3 80 18 40 15 55 -18 101 -10 13 -7 24 16 57 26 37 33 41 87 47 38 4 64 13
75 25 9 11 27 19 38 19 22 0 92 33 161 75 22 13 69 31 106 40 81 20 126 46
140 83 7 16 9 61 5 115 l-6 87 45 66 c25 36 45 71 45 78 0 13 42 26 85 26 20
0 25 -9 40 -71 22 -89 40 -109 99 -109 38 0 45 -3 55 -28 7 -16 43 -59 82 -95
l69 -67 -6 -70 c-6 -56 -4 -74 10 -95 13 -20 15 -38 10 -90 -5 -50 -3 -70 9
-89 16 -23 115 -76 144 -76 47 0 146 84 159 135 3 14 13 25 22 25 9 0 39 9 67
19 27 11 69 24 93 31 32 8 48 20 67 50 l25 39 87 -5 c49 -3 104 -10 123 -15
77 -20 108 -13 156 36 24 25 48 45 54 45 5 0 37 25 70 55 32 30 72 58 87 61
15 4 59 1 98 -6 103 -19 212 -23 280 -11 59 11 60 11 116 -24 38 -23 69 -35
94 -35 20 0 50 -7 67 -16 26 -14 29 -20 26 -50 l-4 -34 62 0 c35 0 65 4 68 9
3 5 27 12 53 16 126 19 168 86 138 227 -20 98 -19 167 4 263 21 88 43 223 44
270 0 17 -4 53 -8 82 -8 51 -7 51 20 55 20 2 38 16 60 48 20 29 40 46 56 48
13 1 43 7 66 12 31 8 48 6 69 -5 16 -8 40 -11 56 -8 25 5 34 0 59 -30 48 -58
137 -75 299 -57 147 16 164 25 255 135 71 88 80 95 113 95 20 0 55 -9 78 -21
37 -18 43 -25 49 -62 15 -89 57 -131 127 -129 l40 2 -8 -38 c-20 -90 3 -142
62 -142 22 0 24 -4 24 -56 0 -51 -4 -61 -35 -95 -19 -22 -35 -49 -35 -62 0
-12 16 -49 35 -82 19 -33 51 -91 70 -128 57 -110 92 -113 200 -17 37 33 72 60
76 60 14 0 39 57 39 89 0 26 8 33 68 66 79 43 101 68 102 113 0 26 10 43 41
74 49 49 47 49 224 -34 188 -88 255 -89 291 -3 11 28 22 36 56 45 24 6 50 13
60 16 9 3 23 15 30 27 23 35 48 116 41 135 -11 31 -56 71 -92 83 -84 25 -92
31 -116 83 -13 28 -32 63 -41 78 -19 28 -18 30 37 164 17 42 -2 88 -42 106
-27 12 -29 17 -29 64 l0 51 39 -1 c82 -2 117 40 131 157 5 40 20 126 35 192
14 66 28 170 32 230 5 104 4 114 -22 175 -66 158 -92 328 -71 472 8 52 6 60
-23 111 -21 37 -41 59 -63 68 -17 7 -63 34 -103 60 l-72 47 -12 78 c-16 96
-22 108 -76 159 -38 35 -44 47 -50 98 -8 66 -39 114 -109 173 -69 58 -165 114
-208 121 -35 5 -38 8 -38 37 0 58 -97 212 -147 232 -29 13 -37 12 -65 -2 -30
-16 -34 -15 -72 4 -23 11 -53 25 -68 30 -20 9 -28 20 -33 54 -10 61 -28 91
-79 133 -24 20 -64 61 -87 91 -42 55 -43 56 -31 100 25 93 15 113 -82 168 -66
38 -126 94 -126 118 0 10 -28 49 -63 86 -34 37 -80 89 -101 115 -38 46 -39 49
-26 86 7 21 10 47 6 57 -3 10 -49 50 -101 88 -52 38 -95 74 -95 79 0 5 5 27
12 48 17 58 -9 105 -103 190 -76 68 -77 70 -89 136 -16 93 -34 131 -85 183
-107 107 -168 192 -179 252 -10 52 -44 88 -115 122 -66 32 -69 38 -46 103 25
73 2 137 -96 265 -76 98 -92 157 -93 328 -1 119 0 125 20 128 15 2 34 -13 69
-55 69 -83 113 -121 174 -150 48 -23 70 -26 215 -32 182 -7 159 2 316 -121
114 -90 122 -93 219 -100 l85 -5 8 -32 c20 -76 297 -273 386 -273 22 0 86 37
111 64 14 14 29 26 35 26 6 0 34 -16 61 -36 112 -80 155 -90 329 -73 114 11
126 10 196 -10 105 -30 303 -44 498 -36 140 6 165 10 187 27 28 22 60 81 95
176 29 80 64 111 204 176 142 67 159 97 119 209 -21 58 -17 62 71 72 84 9 138
35 165 78 19 31 29 37 79 47 164 31 220 72 237 172 6 33 0 53 -34 125 -23 46
-41 91 -41 99 0 8 18 48 40 88 53 97 55 143 5 193 -31 31 -39 35 -78 30 -23
-2 -52 -8 -64 -12 -22 -7 -23 -6 -23 64 0 85 -15 127 -61 165 -82 69 -187 64
-244 -12 -15 -21 -20 -48 -25 -134 -3 -73 -8 -105 -16 -100 -5 4 -23 43 -38
87 -37 105 -75 163 -133 202 -62 41 -83 49 -217 77 -61 13 -128 31 -148 39
-41 17 -96 86 -154 191 -35 64 -38 76 -40 162 -3 97 -18 145 -53 164 -11 5
-58 10 -105 10 -83 0 -86 1 -92 25 -10 40 3 70 54 127 70 77 82 98 82 142 0
90 -83 171 -175 170 -95 -1 -208 -87 -242 -186 -10 -28 -23 -52 -30 -55 -11
-4 -100 51 -174 109 -34 26 -39 36 -69 160 -55 223 -107 292 -209 279 -7 -2
-38 18 -70 42 -80 63 -111 77 -206 89 l-84 11 -10 62 c-15 85 -13 156 4 179
44 59 -9 173 -103 220 -18 10 -36 24 -39 33 -4 9 8 43 27 78 l34 62 -40 89
c-31 71 -53 103 -108 159 l-68 70 -4 105 c-2 57 -9 119 -15 137 -13 42 -61 78
-121 94 -43 12 -53 11 -126 -14 -44 -15 -91 -27 -105 -27 -14 0 -49 19 -83 45
-83 65 -117 63 -187 -9 -80 -82 -255 -163 -326 -150 -87 16 -109 47 -135 197
-16 93 -31 130 -68 164 -53 50 -154 68 -221 39 -18 -7 -58 -34 -89 -60 -43
-34 -65 -46 -91 -46 -53 0 -106 53 -162 161 -57 110 -95 154 -186 215 -46 30
-71 54 -75 71 -4 16 5 63 26 128 24 77 30 112 25 137 -16 72 -65 108 -147 108
-56 0 -65 7 -88 68 -27 70 -25 84 11 111 40 30 59 75 48 115 -12 42 -67 95
-106 102 -37 7 -39 14 -18 75 9 24 17 83 18 131 3 108 12 119 146 184 53 25
115 56 139 67 52 25 111 88 114 120 1 12 2 90 3 172 1 83 5 207 9 277 7 117 6
129 -14 167 -11 23 -32 85 -46 138 -15 58 -39 119 -60 153 -35 57 -35 58 -32
156 4 116 -9 146 -73 173 -46 19 -49 39 -14 85 38 49 55 100 55 161 0 32 4 55
11 55 5 0 31 -16 57 -36 l47 -36 118 5 c167 8 207 38 207 151 l0 56 90 86 c98
95 150 179 150 243 -1 76 -59 155 -122 168 -16 3 -28 11 -28 17 0 21 98 162
138 198 38 34 104 58 165 58 35 1 102 35 125 65 28 35 29 96 2 172 -29 82 -28
85 24 78 53 -8 98 12 127 58 18 28 20 43 14 123 -6 90 -6 90 20 102 35 16 65
69 65 115 0 21 11 60 25 87 17 33 25 66 25 100 0 28 6 63 14 79 19 37 95 105
145 130 46 24 75 71 65 104 -3 12 -19 43 -35 68 -43 69 -41 73 39 64 93 -12
128 -11 157 5 37 20 56 56 56 103 0 76 8 95 54 127 49 34 85 86 85 123 0 16 8
31 20 37 33 18 54 59 61 121 6 48 12 64 38 88 23 22 31 38 31 64 0 32 3 35 37
42 22 4 50 20 70 40 44 44 45 90 3 138 -35 41 -37 51 -10 84 37 48 25 83 -50
138 -58 42 -65 65 -20 65 90 0 148 95 105 170 -21 37 -18 48 15 65 17 9 40 30
50 48 17 27 19 43 14 108 -6 74 -6 75 21 93 14 10 33 32 40 49 16 38 3 77 -45
135 -16 20 -30 41 -30 46 0 6 15 25 33 44 28 29 32 39 30 80 -2 42 1 49 27 64
43 24 61 66 50 114 -16 68 -14 74 28 74 45 0 75 19 92 59 16 40 1 86 -51 151
-46 58 -48 78 -13 111 65 60 71 124 19 176 -33 33 -35 39 -25 66 14 41 14 41
-17 77 -28 34 -120 80 -159 80 -13 0 -34 -5 -47 -11 -22 -10 -33 -5 -98 38
-41 28 -90 58 -109 68 -19 10 -63 44 -98 76 -78 73 -138 94 -251 87 -57 -4
-91 -12 -133 -33 l-56 -28 -84 57 c-56 38 -99 59 -125 63 -66 9 -134 -29 -252
-141 -87 -82 -106 -96 -135 -96 -37 0 -44 11 -67 100 -39 155 -135 243 -280
256 -109 11 -170 -25 -271 -157 -66 -87 -89 -103 -199 -139 -50 -16 -98 -35
-106 -42 -8 -6 -32 -47 -54 -89 -21 -43 -42 -80 -47 -83 -4 -2 -52 -14 -106
-25 -109 -22 -188 -56 -228 -98 -15 -15 -46 -64 -70 -108 -56 -102 -91 -122
-233 -136 -53 -5 -135 -18 -182 -29 -116 -27 -118 -27 -132 20 -6 22 -13 40
-14 40 -1 -1 -27 -7 -57 -14 -55 -12 -55 -13 -52 -48 l3 -35 -293 -13 c-181
-8 -418 -10 -618 -7 -407 7 -472 17 -680 105 -77 33 -93 45 -179 134 -51 54
-141 133 -200 175 -188 137 -280 214 -312 265 -17 27 -60 74 -94 106 -60 54
-64 61 -79 129 -9 40 -16 106 -16 147 0 66 3 77 22 90 42 29 127 14 250 -44
98 -47 158 -37 193 30 34 65 6 183 -82 350 -45 84 -57 116 -61 165 -4 57 -2
66 37 137 64 118 55 195 -34 277 -44 40 -95 61 -151 61 -47 0 -172 -35 -268
-74 -47 -20 -97 -36 -111 -36 -22 0 -25 5 -25 33 0 17 14 61 30 95 59 124 35
187 -132 347 -134 129 -187 159 -288 159 l-75 1 -68 130 c-83 156 -83 165 -3
269 30 40 60 84 65 100 35 90 -27 194 -149 250 -125 58 -234 16 -301 -116 -21
-42 -39 -42 -39 -1 0 40 -44 106 -87 130 -61 33 -96 37 -147 15 -46 -21 -76
-62 -90 -127 -18 -82 -61 -83 -128 -4 -120 144 -161 172 -216 153 -14 -5 -34
-22 -46 -37 -18 -25 -21 -42 -20 -138 0 -73 -3 -109 -10 -109 -6 1 -35 37 -65
81 -139 207 -214 227 -331 87 -65 -77 -78 -118 -53 -161 18 -31 65 -70 135
-112 41 -25 46 -54 15 -83 -25 -24 -271 -118 -335 -128 -76 -12 -282 82 -387
178 -61 55 -172 203 -271 361 -53 85 -81 120 -117 144 -117 79 -360 83 -717
12 -58 -11 -157 -23 -221 -26 l-115 -6 -18 48 c-40 104 -114 149 -198 120 -60
-21 -96 -19 -148 8 -57 28 -90 88 -90 164 0 118 -34 194 -103 230 -66 34 -328
-17 -480 -94 -173 -86 -219 -197 -143 -347 20 -39 36 -80 36 -91 0 -48 -162
-246 -221 -269 -65 -26 -182 -39 -255 -27 -53 8 -72 17 -109 49 -82 72 -145
76 -323 21 -105 -32 -182 -38 -202 -14 -7 8 -29 48 -49 88 -41 82 -92 124
-187 154 -30 9 -54 21 -54 26 0 5 25 32 55 61 51 48 55 55 55 98 0 54 -83 261
-130 326 -33 47 -118 92 -171 92 -82 0 -193 -65 -239 -139 -14 -22 -30 -41
-36 -41 -6 0 -24 35 -39 77 -65 185 -144 227 -320 173 -175 -55 -231 -130
-305 -410 -24 -94 -58 -113 -211 -120 -127 -6 -149 -14 -193 -74 -31 -41 -34
-156 -7 -269 25 -105 27 -174 6 -205 -9 -12 -46 -39 -83 -61 -91 -53 -218
-149 -306 -231 -98 -90 -152 -111 -306 -118 -136 -5 -174 3 -260 58 -78 51
-144 118 -230 235 -37 50 -91 112 -120 137 -99 87 -233 134 -344 122 -46 -5
-57 -2 -113 32 -34 20 -103 75 -154 121 -50 46 -121 100 -158 120 -120 66
-178 111 -260 201 -108 117 -146 137 -266 137 -83 0 -96 -3 -165 -36 -92 -45
-189 -117 -229 -171 -52 -70 -141 -116 -201 -103 -17 4 -43 17 -58 29 -82 69
-158 74 -275 19 -60 -28 -80 -34 -86 -24 -5 7 -11 46 -14 86 -8 109 -45 165
-109 165 -64 0 -149 -119 -168 -234 -5 -32 -17 -67 -26 -77 -25 -27 -83 -24
-167 9 -101 40 -121 44 -172 31 -25 -6 -48 -9 -52 -6 -3 4 13 43 35 89 54 108
67 167 48 212 -17 40 -51 66 -87 66 -42 0 -139 -55 -212 -121 -53 -48 -72 -60
-90 -55 -52 14 -52 16 -29 128 42 198 39 264 -14 327 -77 92 -237 38 -271 -90
-17 -65 -128 -184 -186 -200 -120 -33 -639 57 -742 129 -57 40 -75 78 -85 180
-10 104 -32 156 -87 201 -53 44 -118 61 -259 68 l-120 6 -38 73 c-37 72 -84
124 -111 124 -25 0 -64 -23 -80 -46 -23 -36 -71 -172 -130 -373 -30 -101 -60
-188 -67 -192 -34 -22 -127 -31 -228 -24 -58 4 -170 9 -249 11 -83 1 -157 8
-175 15 -52 21 -157 84 -251 152 -50 35 -108 73 -130 85 -22 11 -71 43 -110
72 -99 74 -187 115 -306 145 -57 14 -117 31 -132 37 -15 6 -62 48 -103 93 -74
82 -139 126 -201 140 -17 3 -37 13 -43 20 -7 8 -25 65 -41 126 -35 135 -73
209 -148 288 -65 69 -143 111 -209 111 -84 0 -124 -52 -128 -165 -2 -90 -1
-85 -23 -85 -24 0 -30 24 -45 181 -10 102 -17 132 -35 158 -52 73 -136 80
-232 18 -31 -20 -59 -43 -63 -52 -14 -38 -5 -83 29 -135 39 -61 42 -75 20 -84
-16 -6 -160 10 -176 19 -12 8 -11 52 2 78 6 12 39 51 74 87 49 51 64 73 68
105 8 54 -19 113 -72 155 -31 25 -45 47 -61 96 -24 72 -49 108 -90 129 -33 17
-51 17 -99 2z m75 -197 c17 -48 34 -76 68 -107 25 -23 46 -44 46 -48 0 -4 -22
-27 -49 -51 -28 -25 -62 -69 -77 -99 -23 -48 -26 -64 -22 -129 3 -63 7 -79 28
-102 41 -44 100 -64 207 -71 121 -7 171 5 211 51 l29 34 13 -42 c24 -82 75
-126 145 -126 104 0 176 90 159 198 -8 52 6 59 58 30 68 -37 131 -130 157
-229 60 -228 91 -273 204 -293 38 -7 58 -24 164 -138 63 -67 123 -98 249 -126
116 -27 182 -56 263 -118 35 -27 95 -67 132 -89 37 -22 115 -73 173 -113 58
-40 143 -91 189 -113 l84 -40 194 -6 c317 -11 398 -9 461 10 83 25 121 63 143
139 42 154 117 394 124 401 5 5 20 -12 34 -36 42 -72 62 -80 220 -88 198 -11
237 -34 237 -145 0 -133 70 -248 183 -306 188 -95 707 -166 839 -115 82 32
248 227 248 291 0 9 10 20 21 27 46 24 48 -36 8 -227 -33 -154 -16 -200 92
-254 94 -48 116 -42 216 51 63 59 103 86 103 72 0 -5 -24 -51 -54 -104 -30
-53 -59 -113 -65 -133 -11 -44 2 -91 29 -106 29 -16 99 -12 173 9 l68 20 92
-36 c79 -30 100 -34 158 -31 108 6 169 62 190 174 18 91 21 94 34 27 17 -86
33 -122 66 -138 43 -23 68 -18 168 30 97 47 149 56 171 29 22 -26 93 -62 137
-69 49 -8 150 15 199 45 17 11 51 41 75 67 89 95 126 125 203 163 63 32 89 40
133 40 30 0 64 -5 75 -11 12 -6 69 -59 127 -118 86 -87 127 -119 216 -171 61
-35 137 -89 170 -120 90 -83 144 -124 210 -161 55 -31 67 -34 150 -35 160 -2
247 -49 352 -192 125 -170 227 -264 350 -323 63 -30 77 -33 190 -37 208 -7
316 28 446 146 95 86 203 169 286 217 168 99 199 181 150 393 -11 50 -19 113
-17 143 l3 54 110 6 c207 11 272 66 329 283 50 189 91 231 263 269 38 8 68
-26 98 -110 61 -172 107 -235 171 -235 49 0 86 39 108 115 28 96 116 156 186
127 25 -10 39 -30 74 -104 24 -50 49 -108 57 -129 13 -37 13 -40 -11 -59 -91
-71 -124 -124 -113 -182 8 -38 63 -82 130 -101 109 -31 123 -42 158 -119 74
-161 160 -187 395 -121 68 19 134 35 147 35 13 0 41 -17 65 -40 28 -27 62 -46
98 -57 66 -20 220 -22 304 -4 l59 13 39 -46 c54 -62 110 -94 191 -105 144 -20
231 -85 328 -244 125 -205 263 -388 358 -476 20 -18 66 -53 102 -77 36 -23 70
-49 76 -56 6 -7 14 -40 17 -73 11 -92 27 -135 66 -176 41 -43 93 -57 149 -40
77 23 154 107 167 180 7 45 31 121 44 141 8 12 13 13 27 2 62 -44 81 -52 121
-52 90 0 158 61 183 163 35 147 109 237 194 237 105 0 219 51 324 145 53 47
273 218 308 238 7 4 45 -14 88 -42 42 -28 98 -60 125 -73 27 -13 49 -30 50
-39 1 -38 56 -122 118 -181 72 -68 106 -91 384 -267 97 -61 241 -158 320 -216
227 -165 311 -209 438 -227 167 -25 303 -82 523 -222 60 -37 196 -111 303
-163 193 -94 194 -95 172 -112 -38 -29 -140 -88 -183 -106 -56 -23 -98 -66
-169 -175 -79 -120 -123 -160 -176 -160 -85 0 -120 -40 -120 -138 0 -97 -10
-114 -111 -178 -109 -68 -129 -92 -129 -151 0 -56 19 -101 65 -151 l37 -41
-10 -81 c-8 -67 -16 -91 -46 -135 -61 -92 -252 -227 -388 -275 -54 -19 -61
-19 -115 -5 -31 8 -77 15 -100 15 -83 0 -162 61 -184 143 -58 220 -118 314
-344 547 -99 102 -224 235 -278 297 -54 61 -114 122 -135 136 -145 100 -318
118 -543 56 -106 -29 -250 -100 -280 -137 -13 -17 -73 -72 -134 -122 -204
-171 -239 -216 -338 -435 -121 -266 -154 -388 -128 -467 17 -51 74 -112 126
-137 l45 -21 0 -58 c0 -103 -5 -107 -155 -151 -149 -44 -200 -102 -214 -241
-10 -95 -25 -116 -104 -151 -70 -31 -221 -38 -333 -15 -138 27 -234 37 -424
43 -179 6 -189 5 -295 -22 -224 -56 -517 -169 -576 -222 -70 -63 -88 -172 -40
-232 59 -73 53 -101 -44 -197 -92 -91 -104 -122 -81 -215 18 -69 37 -101 80
-133 22 -17 42 -21 109 -21 72 0 91 4 156 33 68 31 77 33 115 22 56 -16 128
-69 175 -132 78 -104 107 -132 161 -157 47 -22 68 -26 150 -26 68 1 109 6 144
19 65 26 139 14 309 -49 l128 -47 77 -93 c94 -114 138 -145 203 -145 51 0 102
31 114 70 9 27 18 25 60 -11 48 -43 81 -103 93 -169 19 -104 82 -231 175 -356
107 -141 203 -156 309 -48 29 30 60 54 69 54 52 0 123 -159 138 -311 7 -68 13
-85 35 -108 22 -21 36 -26 79 -26 28 0 73 3 99 7 37 6 51 4 64 -9 39 -39 -18
-197 -86 -237 -30 -18 -39 -18 -104 -8 -117 19 -182 -4 -281 -98 -39 -38 -74
-62 -100 -69 -65 -18 -216 -13 -328 10 -85 18 -126 21 -247 17 -126 -4 -154
-8 -214 -32 -79 -30 -136 -33 -177 -9 -16 10 -52 46 -80 81 -29 34 -66 70 -83
79 -17 9 -70 20 -117 23 -107 10 -145 28 -206 105 -59 73 -102 89 -208 80 -97
-8 -194 -32 -437 -109 -226 -72 -348 -117 -453 -166 -124 -58 -169 -50 -231
44 -66 101 -54 160 44 210 26 13 58 36 72 51 24 26 25 32 22 133 -4 153 -10
168 -107 272 -89 96 -138 173 -180 285 -26 68 -27 75 -26 300 0 226 0 231 -25
282 -30 62 -78 102 -170 144 -102 46 -174 100 -256 189 -40 44 -87 87 -105 95
-58 28 -170 20 -295 -21 -108 -36 -113 -37 -227 -31 -126 6 -194 23 -286 70
-45 23 -74 31 -115 31 -66 1 -95 -15 -148 -82 -20 -27 -53 -60 -73 -74 -48
-34 -66 -77 -74 -178 -9 -119 -18 -142 -100 -255 -89 -124 -137 -204 -165
-275 -19 -48 -22 -76 -24 -235 -1 -107 -7 -204 -15 -240 -11 -47 -11 -69 -2
-102 18 -67 89 -162 159 -213 73 -53 333 -350 351 -402 7 -18 21 -77 31 -130
23 -119 29 -131 124 -241 151 -174 167 -233 173 -623 6 -338 3 -358 -79 -524
-60 -124 -134 -204 -288 -312 -144 -102 -223 -143 -376 -199 -118 -42 -579
-192 -833 -270 -97 -30 -349 -153 -446 -219 -91 -62 -288 -219 -400 -321 -44
-39 -105 -84 -135 -98 -51 -24 -65 -26 -200 -26 -163 -1 -181 -6 -242 -73 -36
-40 -71 -118 -84 -188 -27 -151 -141 -176 -304 -65 -172 118 -249 117 -316 -4
-52 -94 -67 -99 -277 -103 -250 -5 -270 4 -347 158 -59 117 -97 150 -173 150
-55 0 -91 -16 -161 -71 -27 -22 -54 -39 -61 -39 -14 0 -51 53 -90 130 -15 30
-64 93 -108 140 -93 99 -148 166 -189 233 -46 74 -96 98 -222 106 -82 5 -108
10 -125 25 -25 23 -41 73 -34 110 15 77 -45 163 -161 233 -149 89 -289 205
-381 315 -43 51 -81 86 -104 95 -99 42 -265 -31 -438 -191 -32 -29 -73 -61
-91 -70 -73 -38 -183 -29 -239 18 -15 13 -62 40 -103 60 -58 28 -84 48 -113
87 -56 74 -89 91 -163 86 -93 -7 -212 -75 -372 -213 -79 -68 -92 -103 -92
-249 0 -135 18 -238 54 -305 13 -25 38 -72 55 -104 27 -51 31 -69 31 -135 0
-102 -18 -130 -198 -300 -94 -89 -149 -149 -163 -178 -49 -101 -32 -199 53
-303 147 -179 416 -531 440 -575 61 -113 113 -340 128 -562 11 -144 46 -315
74 -358 8 -12 95 -82 194 -156 l180 -134 28 -70 27 -69 -17 -296 c-32 -538
-27 -498 -86 -613 -28 -55 -101 -186 -162 -290 -100 -170 -158 -300 -158 -352
0 -38 -75 -96 -213 -167 l-142 -73 -215 1 c-179 1 -246 5 -400 28 -314 46
-357 60 -446 138 -122 108 -170 136 -301 173 -82 23 -91 28 -143 84 -30 32
-83 105 -118 163 -77 128 -153 205 -244 248 -58 28 -69 37 -79 69 -37 114
-185 242 -349 301 -47 17 -108 46 -135 64 -28 18 -125 114 -215 212 -90 99
-230 247 -310 329 -80 83 -178 195 -219 249 -77 101 -185 202 -322 301 -49 35
-160 93 -315 165 -131 61 -243 115 -247 119 -5 5 -12 45 -16 90 -6 70 -10 84
-36 111 -37 39 -79 50 -187 50 -123 0 -127 4 -223 237 -42 104 -87 206 -100
229 -36 62 -131 144 -225 194 -69 36 -105 66 -190 151 -110 112 -239 205 -332
241 -58 22 -115 57 -253 157 -151 110 -372 211 -461 211 -29 0 -38 13 -63 99
-20 65 -30 82 -85 137 -53 53 -69 63 -117 73 -91 19 -216 101 -442 290 -32 27
-107 74 -167 105 -122 63 -127 70 -169 198 -30 90 -87 167 -162 217 -60 40
-141 71 -186 71 -46 0 -79 28 -131 112 -64 105 -68 116 -88 241 -16 98 -36
163 -85 275 -29 65 -20 77 66 93 108 20 181 47 281 105 169 98 211 114 316
123 51 4 365 4 698 -1 538 -8 616 -11 707 -28 131 -26 246 -61 355 -111 132
-60 265 -86 533 -104 127 -9 336 -24 465 -35 341 -29 400 -14 531 130 96 107
124 116 303 105 192 -13 236 -11 283 14 97 49 151 195 109 294 -7 18 -48 75
-91 127 -113 138 -119 154 -120 335 -1 201 5 229 67 306 47 59 50 66 46 110
-6 63 -32 96 -148 185 -82 62 -104 85 -126 130 -26 52 -26 60 -28 242 l-1 189
-36 54 c-20 30 -54 72 -75 94 -50 51 -218 181 -363 280 -121 83 -128 93 -117
174 4 27 0 96 -9 156 -18 130 -19 359 -3 506 15 138 3 232 -39 291 -56 79 -64
104 -72 211 -7 93 -10 107 -38 148 -68 97 -144 154 -374 277 -101 55 -200 109
-220 120 -111 67 -387 111 -700 112 -146 0 -196 37 -313 231 -25 42 -64 93
-86 113 -73 66 -120 61 -229 -22 l-75 -57 -135 -3 c-168 -4 -434 20 -521 48
-36 11 -81 30 -102 42 -20 13 -56 35 -80 50 -58 36 -172 65 -328 83 -74 8
-155 24 -199 39 -87 30 -142 32 -265 10 l-88 -16 -72 -73 c-39 -40 -83 -88
-96 -108 -14 -20 -38 -42 -55 -49 -36 -16 -252 -14 -301 2 -29 10 -64 44 -168
165 -44 51 -105 75 -190 75 -79 0 -113 14 -162 69 -61 67 -88 75 -240 67 -193
-11 -245 11 -310 132 -31 60 -64 90 -153 144 l-61 37 0 49 c0 78 -19 162 -56
242 -31 66 -50 90 -164 200 -142 138 -174 188 -186 291 -7 63 9 177 32 221 22
42 107 78 214 88 119 13 343 48 420 66 78 19 237 92 289 133 l38 31 52 -60
c63 -72 59 -71 283 -35 84 13 200 28 258 34 113 10 185 32 201 63 6 10 14 100
18 199 11 223 16 236 170 403 127 137 117 109 126 365 l5 164 85 92 c98 107
102 121 51 195 -19 28 -37 64 -41 81 -13 56 13 69 275 139 129 35 213 71 236
103 45 63 169 266 198 325 45 88 64 156 71 250 4 42 15 108 27 146 25 88 207
453 249 501 34 38 120 86 226 124 l62 23 43 -36 c105 -90 256 -85 455 14 l97
49 56 -31 c82 -46 164 -103 223 -155 58 -52 191 -119 372 -186 168 -62 244
-79 355 -80 116 -1 188 19 253 68 90 69 149 79 255 46 34 -10 93 -37 132 -60
87 -50 168 -86 343 -153 130 -49 133 -50 222 -45 139 7 220 32 270 82 25 24
49 61 58 90 18 52 22 170 8 243 -5 23 -7 42 -5 42 1 0 22 -8 46 -18 94 -41
166 -36 240 17 62 43 80 104 53 173 -5 13 0 19 18 23 46 12 72 51 72 109 0 47
3 54 30 72 18 11 37 39 49 69 11 28 21 52 23 54 1 2 14 -6 29 -18 32 -26 99
-28 132 -5 30 20 40 49 53 143 6 41 15 85 21 96 17 34 82 96 96 93 8 -2 25
-32 38 -68z m427 -342 c2 -29 3 -54 2 -56 -2 -2 -15 17 -30 42 -28 47 -26 66
4 66 15 0 19 -10 24 -52z m-10602 -254 c14 -13 17 -26 12 -64 -12 -102 25
-140 137 -140 121 0 227 40 351 131 37 27 83 56 104 65 37 15 38 15 89 -17 28
-18 92 -56 141 -84 87 -50 91 -54 129 -127 l40 -75 -62 -97 c-34 -53 -62 -106
-62 -119 0 -38 41 -147 58 -156 10 -5 79 -14 154 -21 131 -12 137 -14 143 -37
19 -76 53 -142 107 -206 98 -117 189 -258 229 -358 19 -46 22 -71 20 -162 -3
-163 12 -204 123 -344 64 -81 108 -103 201 -102 132 2 266 -63 408 -200 87
-84 104 -111 132 -224 36 -139 83 -261 127 -327 50 -75 108 -106 221 -116 93
-8 112 -21 194 -131 45 -61 60 -74 96 -84 42 -11 178 -7 282 8 81 13 102 6
132 -38 l26 -40 -23 -24 c-29 -31 -157 -97 -240 -123 -36 -12 -103 -26 -150
-32 -47 -7 -107 -16 -135 -21 -27 -5 -94 -14 -148 -19 -120 -12 -235 -55 -271
-104 -38 -49 -57 -134 -58 -246 0 -177 40 -251 226 -416 117 -104 162 -195
176 -350 4 -50 14 -101 21 -113 8 -12 43 -40 79 -63 88 -55 106 -73 142 -141
37 -69 84 -110 153 -134 41 -15 78 -18 203 -16 l153 3 47 -51 c61 -67 80 -75
186 -83 112 -8 144 -24 191 -91 44 -65 105 -122 149 -140 47 -20 251 -36 323
-25 81 11 92 18 161 103 97 118 129 143 204 156 97 17 147 14 229 -15 45 -15
114 -29 175 -35 190 -17 280 -43 371 -110 98 -70 272 -104 603 -116 204 -7
256 2 325 57 78 61 104 74 131 62 12 -6 51 -57 85 -113 75 -122 154 -210 214
-239 39 -19 72 -23 252 -31 388 -16 456 -32 686 -158 89 -49 197 -108 240
-132 82 -45 199 -144 221 -188 8 -14 17 -66 21 -115 8 -104 25 -157 64 -206
44 -55 54 -100 47 -204 -18 -257 -18 -451 -1 -556 11 -70 14 -127 10 -172 -12
-116 7 -145 165 -253 149 -102 327 -243 363 -287 61 -76 62 -78 67 -288 6
-186 7 -197 32 -245 27 -52 71 -98 148 -155 75 -55 120 -103 120 -125 0 -12
-12 -32 -26 -46 -14 -13 -38 -44 -52 -69 -27 -44 -27 -49 -30 -250 -4 -248 2
-272 106 -401 126 -158 134 -180 95 -256 -35 -67 -61 -79 -166 -73 -51 2 -144
5 -207 5 -105 0 -120 -2 -171 -27 -38 -19 -76 -51 -122 -102 -87 -97 -133
-120 -242 -120 -44 -1 -215 9 -380 21 -605 46 -646 52 -810 126 -107 48 -192
75 -333 108 -75 18 -139 22 -467 29 -209 5 -524 9 -700 9 -373 1 -413 -5 -541
-74 -46 -25 -122 -65 -167 -90 -64 -34 -105 -49 -173 -60 -104 -19 -142 -38
-167 -85 -23 -45 -17 -85 29 -185 33 -71 44 -115 76 -294 6 -29 25 -83 44
-119 19 -36 33 -66 32 -67 -2 -1 -163 13 -358 31 -195 18 -396 33 -446 33
-170 1 -181 6 -452 181 -62 40 -115 71 -118 68 -3 -3 18 -151 47 -329 59 -369
62 -299 -24 -591 -40 -136 -49 -183 -67 -360 -11 -112 -26 -230 -32 -263 -18
-100 -21 -205 -9 -346 9 -118 16 -149 56 -262 l45 -128 -56 -73 c-31 -42 -57
-89 -60 -108 -3 -18 -16 -41 -29 -50 -21 -16 -29 -16 -100 -3 -92 18 -185 19
-220 3 -40 -18 -62 -65 -84 -181 -12 -63 -28 -119 -40 -135 -28 -40 -103 -107
-140 -126 -17 -9 -31 -20 -31 -24 0 -4 45 -72 100 -151 55 -80 99 -146 97
-147 -4 -4 -139 -54 -146 -54 -4 0 -13 15 -19 34 -18 48 -33 57 -119 72 -42 8
-77 15 -79 16 -1 2 -12 77 -23 168 -31 235 -37 366 -21 440 14 64 98 245 196
420 l59 105 0 85 c0 152 -45 213 -275 369 -63 44 -146 107 -184 140 l-70 62
-148 -7 c-141 -7 -148 -6 -148 12 0 10 -3 36 -6 56 l-6 36 133 4 c112 2 141 6
173 24 99 51 132 155 83 256 -38 77 -151 216 -183 224 -14 4 -37 1 -50 -5 -14
-6 -29 -11 -33 -11 -16 0 -19 96 -5 168 29 151 -7 315 -139 639 -25 59 -59
153 -77 208 -40 122 -79 203 -131 272 -46 61 -142 144 -202 175 -64 32 -231
86 -320 103 -44 8 -85 19 -91 23 -83 64 -268 214 -293 240 -43 43 -70 97 -94
189 -16 65 -25 142 -16 143 1 1 48 5 104 9 75 7 111 14 136 30 35 21 57 57 57
92 0 22 48 122 88 182 l26 39 -17 119 c-9 65 -20 124 -23 133 -3 8 -23 26 -45
40 -51 34 -64 55 -94 159 -31 106 -66 181 -109 225 -49 53 -75 62 -176 62
l-90 0 -46 48 c-25 26 -81 70 -126 97 -45 28 -90 62 -101 76 -19 27 -77 180
-145 385 -20 61 -44 119 -52 129 -12 15 -29 17 -128 14 l-114 -4 -29 79 c-40
109 -91 207 -143 274 -57 74 -195 207 -223 216 -48 15 -148 -75 -178 -162 -41
-116 -54 -132 -76 -89 -20 39 -71 86 -100 92 -70 16 -122 -26 -233 -187 l-67
-97 -52 22 -52 23 -5 100 c-8 141 -30 174 -160 239 -118 59 -124 67 -373 462
l-165 261 15 62 16 61 -51 82 c-33 55 -46 84 -39 89 7 3 50 16 97 29 77 21
106 37 293 161 271 181 269 149 31 389 l-177 178 7 93 7 93 -106 299 c-58 165
-105 304 -105 311 0 6 17 51 38 101 35 84 37 95 37 199 l0 109 80 18 c97 23
149 52 209 119 32 36 52 70 66 115 33 107 53 222 45 262 -7 40 -39 107 -55
117 -30 19 -109 217 -195 493 -46 148 -60 180 -94 221 l-41 49 94 62 c52 34
97 68 100 76 3 8 3 41 -1 74 -9 90 8 138 80 227 34 43 77 102 96 131 42 67 91
185 91 223 0 17 -18 56 -44 96 -71 112 -91 159 -150 368 l-57 199 55 51 56 50
15 100 c9 55 22 109 29 120 26 39 207 224 224 230 10 3 54 -4 97 -15 43 -11
82 -20 86 -20 4 0 36 23 69 51 65 54 68 64 45 135 -5 15 0 25 18 37 23 15 27
14 83 -24 32 -21 67 -39 77 -39 10 0 52 10 92 21 l73 21 92 -21 c50 -11 102
-21 114 -21 32 0 53 27 72 91 9 30 18 57 21 62 9 15 126 8 144 -9z m23585
-1145 c3 -6 10 -53 14 -104 5 -71 13 -106 34 -149 62 -126 223 -197 348 -152
44 16 51 11 67 -49 12 -45 51 -88 94 -104 45 -17 205 -13 328 9 277 50 382 62
504 58 153 -5 199 -23 240 -94 45 -78 143 -223 208 -307 34 -44 56 -81 51 -86
-5 -4 -63 -49 -129 -100 -66 -50 -149 -117 -185 -147 -90 -76 -154 -106 -248
-114 -90 -8 -125 -24 -174 -78 -52 -58 -84 -118 -107 -202 -34 -122 -85 -152
-158 -91 -91 75 -178 19 -212 -139 -7 -30 -17 -68 -23 -84 -13 -34 -82 -86
-113 -86 -44 0 -73 54 -84 155 -5 42 -16 87 -26 101 -9 14 -53 49 -98 79 -85
55 -127 94 -216 204 -59 72 -190 266 -241 356 -75 133 -201 223 -347 248 -91
16 -106 23 -152 70 l-33 35 63 74 c196 225 214 280 138 425 -41 78 -41 80 -25
111 27 51 124 100 296 147 92 25 175 32 186 14z m3672 -688 c4 -23 -18 -47
-166 -181 -70 -63 -72 -67 -72 -111 0 -67 37 -96 179 -144 184 -61 266 -57
311 17 18 30 20 48 18 183 -1 123 1 157 15 190 25 55 45 75 79 75 55 0 138
-58 138 -95 0 -7 -21 -38 -46 -71 -62 -79 -94 -148 -94 -205 0 -37 13 -71 66
-175 109 -211 137 -238 241 -231 89 7 128 -15 250 -137 116 -116 119 -123 76
-206 -35 -68 -42 -160 -16 -209 26 -50 64 -74 126 -79 46 -4 69 2 157 37 112
46 199 71 241 71 38 0 89 -45 89 -77 0 -15 -17 -56 -37 -92 -37 -64 -38 -70
-38 -162 l0 -95 72 -145 c63 -126 95 -209 80 -209 -3 0 -29 11 -58 25 -131 60
-250 68 -328 24 l-40 -22 -123 78 c-68 43 -240 136 -383 205 -143 70 -305 155
-358 189 -224 142 -384 212 -524 230 -139 18 -216 55 -428 210 -121 89 -224
158 -502 335 -137 88 -273 200 -273 227 0 5 25 6 58 3 50 -6 73 -1 197 41 77
26 163 57 191 70 87 39 144 114 144 193 0 60 -56 129 -141 172 l-40 21 27 34
c14 19 31 35 38 35 17 0 115 -137 172 -242 43 -78 57 -96 95 -116 54 -29 100
-24 140 14 42 40 45 89 15 208 -14 54 -26 105 -26 113 0 9 29 -16 65 -55 97
-105 185 -129 264 -73 26 19 75 104 95 165 6 17 8 17 29 3 12 -8 23 -24 25
-36z m138 -201 c1 -164 11 -156 -129 -113 l-87 26 90 85 c50 46 97 97 106 113
8 16 16 29 17 29 1 0 2 -63 3 -140z m924 -1814 l133 -84 -2 -92 c-2 -64 5
-125 20 -198 24 -113 24 -114 112 -185 25 -20 62 -61 81 -90 45 -68 121 -133
338 -291 64 -46 148 -120 205 -181 93 -97 103 -105 188 -140 275 -114 321
-120 936 -120 l486 0 17 -105 c21 -134 20 -147 -5 -161 -31 -16 -81 -3 -129
34 -78 59 -94 67 -138 67 -24 0 -60 -7 -79 -16 -33 -16 -186 -173 -210 -217
-19 -34 -15 -120 9 -201 l21 -74 -28 -47 c-15 -26 -82 -103 -149 -170 l-121
-123 -67 -7 c-86 -8 -196 2 -277 26 -121 36 -310 17 -426 -44 -83 -44 -183
-144 -263 -262 -51 -74 -78 -105 -106 -119 -50 -25 -143 -26 -223 -3 -46 13
-104 19 -220 20 -152 2 -161 1 -242 -27 -46 -17 -111 -48 -144 -70 -59 -39
-208 -180 -278 -264 -31 -37 -41 -42 -76 -42 -32 0 -52 9 -94 41 -49 37 -58
40 -102 36 -33 -3 -61 -14 -92 -36 -24 -17 -54 -31 -67 -31 -29 0 -66 35 -111
105 -51 78 -81 90 -212 88 -130 -3 -189 -15 -269 -54 -75 -37 -95 -36 -148 4
-75 58 -135 145 -249 366 -131 254 -135 271 -76 347 36 46 41 63 37 114 -5 58
-78 116 -208 165 -88 33 -110 62 -74 98 20 20 36 22 165 29 79 3 162 13 188
21 112 36 179 92 199 166 6 23 23 51 42 66 47 39 143 85 180 85 80 1 294 120
410 229 95 89 126 138 139 223 5 34 16 82 24 106 l14 42 -51 58 c-53 60 -81
112 -72 134 3 7 46 40 97 73 114 74 137 106 137 189 0 87 7 106 39 106 91 0
144 43 250 198 l80 119 83 41 c46 23 115 64 154 91 38 27 74 50 80 50 5 1 70
-37 144 -83z m-2810 -360 c86 -32 130 -68 262 -213 73 -81 198 -215 278 -298
179 -185 252 -302 290 -462 24 -106 103 -190 200 -213 l50 -12 -44 -43 c-29
-28 -49 -58 -56 -85 -25 -93 -108 -130 -315 -139 -159 -8 -203 -22 -243 -82
-19 -27 -23 -43 -19 -77 7 -64 51 -104 155 -144 51 -19 98 -45 119 -65 l36
-33 -27 -32 c-41 -50 -56 -92 -56 -156 0 -54 7 -73 111 -277 62 -121 130 -245
152 -275 58 -77 134 -150 182 -171 60 -28 103 -24 190 18 68 32 92 38 191 46
73 5 119 5 131 -1 10 -6 36 -36 58 -68 58 -84 103 -116 167 -122 48 -4 58 -1
105 32 61 42 82 44 109 15 48 -54 162 -75 231 -42 19 9 47 32 61 52 15 20 75
84 134 143 80 80 122 114 170 136 71 34 168 62 225 64 73 3 228 -13 278 -29
75 -25 187 -21 260 8 48 19 67 34 98 76 l39 52 32 -23 c44 -34 97 -45 204 -43
108 2 112 -1 112 -80 0 -100 -49 -276 -100 -357 -47 -73 -74 -85 -200 -85
-124 0 -345 -40 -396 -72 -56 -34 -168 -161 -206 -234 -53 -103 -75 -185 -88
-341 -14 -151 -8 -375 11 -464 14 -69 36 -112 110 -221 68 -100 155 -187 219
-219 122 -62 170 -119 170 -203 0 -68 27 -144 68 -189 63 -70 115 -80 263 -54
112 20 127 15 223 -73 49 -44 121 -97 173 -126 48 -27 116 -68 151 -91 79 -54
143 -68 283 -62 117 5 186 29 221 78 10 14 40 113 67 220 27 107 58 215 69
240 20 47 290 420 345 478 76 79 222 143 331 144 70 1 193 -30 267 -67 54 -28
93 -77 114 -147 36 -121 53 -562 26 -682 -7 -32 -35 -104 -62 -160 -55 -112
-88 -247 -89 -356 -1 -79 -21 -128 -82 -197 -95 -106 -117 -196 -99 -402 10
-111 10 -143 -1 -176 l-13 -40 -100 -7 c-153 -10 -234 -46 -326 -146 -46 -49
-66 -84 -126 -223 -39 -90 -97 -223 -128 -296 -42 -96 -63 -134 -78 -139 -12
-4 -120 -8 -242 -9 -186 -2 -225 -5 -253 -19 -49 -26 -188 -152 -447 -407
-126 -124 -244 -233 -261 -242 -63 -32 -215 -69 -293 -70 -71 -2 -80 -5 -126
-38 -67 -47 -158 -158 -198 -238 -25 -51 -33 -81 -35 -137 -5 -92 10 -143 91
-314 79 -164 151 -344 172 -426 8 -34 22 -140 29 -236 12 -150 17 -181 39
-224 28 -55 132 -201 180 -252 34 -35 106 -62 166 -62 77 0 168 -75 155 -128
-4 -11 -36 -43 -71 -69 -159 -116 -192 -243 -93 -356 45 -50 51 -87 24 -138
-14 -27 -20 -30 -47 -25 -18 2 -88 8 -157 12 -69 3 -140 13 -159 20 -18 8
-100 61 -182 119 -82 58 -152 105 -156 104 -4 0 -28 -27 -51 -60 -60 -81 -89
-95 -167 -80 -40 8 -69 9 -86 3 -28 -11 -86 -73 -112 -122 l-18 -33 -62 6
c-194 19 -181 16 -243 71 -45 39 -66 69 -97 134 -28 60 -47 89 -70 103 -38 23
-99 25 -156 4 -36 -13 -65 -13 -234 0 -105 8 -199 15 -208 15 -17 0 -300 200
-351 248 -15 14 -58 72 -95 128 l-68 104 -53 0 c-50 0 -57 3 -113 53 -64 56
-69 73 -44 134 8 19 15 45 15 57 0 27 -35 61 -72 70 -31 7 -58 31 -58 52 0 29
30 72 65 92 41 25 45 49 11 81 -31 29 -46 90 -46 183 0 95 11 131 56 180 33
37 82 129 99 186 6 20 -1 26 -72 58 -122 56 -166 110 -156 194 4 35 1 50 -13
67 -23 28 -107 49 -225 58 l-86 7 -13 56 c-7 31 -18 68 -25 82 -16 31 -133
143 -199 190 -94 68 -103 70 -276 81 -188 12 -234 5 -327 -46 l-62 -34 -31 35
c-34 39 -33 57 3 105 16 23 19 39 16 102 l-4 75 56 6 c64 8 93 31 104 84 3 17
10 32 15 32 5 0 24 -19 44 -42 41 -51 48 -47 70 38 31 119 13 195 -54 229 -14
6 -78 38 -144 71 -119 59 -155 89 -171 144 -12 44 -34 69 -77 91 -44 22 -61
22 -253 3 -52 -5 -74 -1 -155 26 -130 45 -293 109 -305 121 -6 6 -10 79 -11
172 -1 140 -4 170 -22 217 -12 30 -18 57 -14 61 4 4 45 23 92 44 47 21 89 41
94 46 12 11 -26 110 -112 294 -36 77 -75 169 -88 204 -12 35 -29 70 -38 79
-10 10 -43 18 -94 21 -44 3 -86 12 -95 19 -30 25 -31 69 -3 117 23 38 34 47
79 60 29 8 58 19 64 23 8 5 14 40 15 97 l3 88 -55 23 c-30 12 -56 29 -58 38
-4 17 34 86 47 86 5 0 20 11 35 25 36 33 37 95 1 130 -13 14 -33 25 -43 25
-26 0 -48 27 -61 75 -19 69 -15 81 27 93 20 6 64 21 97 33 83 30 265 32 380 4
58 -14 116 -19 210 -20 173 0 209 11 287 88 33 32 81 68 106 79 42 19 51 19
119 8 58 -10 82 -10 114 -1 123 37 221 235 175 356 -27 69 -51 79 -172 71
l-102 -7 -7 58 c-11 112 -29 179 -67 255 -51 101 -94 138 -161 138 -45 0 -51
-3 -100 -54 -70 -72 -89 -81 -127 -61 -72 37 -209 267 -236 396 -18 86 -39
129 -93 190 -68 78 -147 101 -190 57 -12 -13 -32 -36 -44 -51 -20 -26 -25 -28
-49 -16 -15 6 -67 59 -116 118 l-90 106 -144 52 c-148 54 -261 77 -320 67 -18
-3 -61 -15 -95 -26 -53 -17 -68 -19 -114 -9 -76 17 -132 53 -163 105 -37 64
-135 159 -192 186 -32 16 -72 26 -114 28 -58 4 -74 0 -135 -29 -86 -40 -143
-44 -178 -11 -22 20 -47 87 -47 122 0 7 33 45 74 85 114 113 136 202 67 280
-64 73 -26 140 113 198 107 45 328 120 430 147 136 35 425 25 671 -21 195 -38
384 -14 474 59 48 39 68 84 80 175 5 43 17 89 26 103 19 30 90 63 190 89 97
25 140 68 150 149 16 126 -7 186 -85 226 -66 34 -85 64 -85 133 1 71 53 212
157 425 69 139 111 192 252 309 50 42 116 100 146 129 138 133 454 209 620
150z m7324 -67 c60 -17 88 -55 124 -167 35 -109 57 -144 105 -168 40 -21 125
-21 166 0 17 9 75 58 129 109 54 51 113 99 130 106 32 13 35 12 123 -48 108
-73 137 -77 227 -31 45 23 73 30 116 30 73 0 111 -17 166 -75 25 -26 66 -57
91 -70 25 -13 84 -49 130 -80 l84 -57 68 5 c37 3 67 3 67 0 0 -3 -11 -14 -24
-24 -60 -47 -54 -148 9 -175 l33 -13 -14 -41 c-15 -43 -11 -78 14 -122 15 -26
15 -28 -10 -47 -38 -30 -50 -70 -46 -155 l3 -76 -48 0 c-40 0 -54 -5 -78 -29
-40 -40 -41 -109 -4 -147 23 -23 24 -27 10 -47 -18 -25 -20 -99 -4 -130 7 -12
23 -35 36 -50 l23 -29 -25 -20 c-39 -30 -43 -47 -36 -131 l7 -79 -37 -19 c-21
-10 -45 -29 -53 -41 -18 -26 -21 -90 -6 -119 10 -17 7 -19 -20 -19 -58 0 -92
-29 -110 -92 -16 -57 4 -118 56 -175 39 -42 42 -48 29 -63 -19 -21 -19 -90 0
-116 21 -28 18 -34 -18 -34 -68 0 -110 -66 -87 -136 11 -32 10 -41 -8 -73 -12
-21 -24 -57 -28 -81 -5 -32 -17 -53 -45 -79 -28 -28 -39 -47 -44 -82 -6 -40
-12 -48 -51 -72 -50 -30 -69 -65 -80 -146 l-7 -53 -61 8 c-75 10 -130 8 -157
-6 -61 -33 -78 -141 -34 -216 l25 -42 -33 -21 c-52 -32 -136 -126 -159 -178
-13 -29 -21 -67 -20 -95 1 -34 -6 -61 -23 -90 -14 -24 -25 -59 -25 -80 0 -31
-5 -39 -35 -57 -48 -28 -58 -60 -51 -157 l6 -82 -44 5 c-55 7 -110 -11 -136
-44 -27 -35 -25 -91 5 -178 36 -101 36 -101 -36 -109 -101 -12 -160 -39 -221
-104 -94 -99 -164 -217 -175 -297 -5 -41 -3 -47 28 -78 23 -23 47 -36 76 -40
88 -14 65 -86 -66 -208 -101 -94 -108 -106 -117 -181 -7 -64 -12 -68 -105 -68
-48 0 -62 5 -94 30 -45 36 -74 44 -121 37 -77 -13 -124 -76 -124 -169 0 -47
-6 -63 -45 -122 -54 -83 -63 -121 -40 -170 18 -37 37 -53 89 -72 l29 -10 1
-100 c1 -98 2 -102 38 -160 21 -35 45 -94 58 -144 12 -47 31 -106 42 -132 18
-41 19 -58 12 -150 -5 -57 -8 -170 -9 -253 0 -82 -4 -155 -8 -162 -4 -7 -72
-43 -151 -82 -202 -98 -249 -156 -245 -303 2 -41 -5 -87 -19 -132 -37 -117
-23 -194 42 -221 l36 -15 -20 -33 c-11 -17 -20 -42 -20 -54 0 -44 62 -198 92
-230 31 -32 90 -53 148 -53 23 0 31 -4 27 -13 -84 -220 -72 -301 61 -394 100
-69 110 -80 159 -175 80 -156 176 -238 280 -238 67 0 85 8 162 69 48 39 72 51
97 51 53 0 68 -24 87 -137 30 -170 96 -249 230 -273 46 -9 70 -8 120 4 86 22
241 100 293 148 l44 40 32 -27 c73 -62 147 -70 255 -30 81 31 113 27 114 -13
5 -233 8 -242 94 -316 42 -36 65 -66 85 -112 l28 -62 -24 -48 c-30 -59 -30
-107 -1 -164 16 -32 35 -51 67 -68 72 -37 78 -46 55 -85 -23 -38 -23 -117 0
-246 11 -66 21 -91 42 -113 32 -33 37 -35 151 -52 87 -13 92 -16 169 -75 68
-53 85 -61 121 -61 51 0 49 3 98 -189 19 -74 41 -145 49 -157 20 -30 84 -81
189 -149 143 -93 205 -87 252 23 47 107 58 123 101 149 47 27 78 24 88 -8 5
-14 -7 -34 -46 -77 -91 -99 -112 -185 -66 -273 31 -59 89 -89 172 -89 l60 0 0
-77 c1 -89 20 -140 100 -265 96 -150 140 -178 350 -222 180 -38 197 -52 251
-200 41 -113 69 -160 111 -187 39 -26 103 -25 138 3 44 34 55 75 55 197 0 60
4 112 8 115 4 3 19 -1 33 -7 23 -12 24 -18 29 -123 4 -78 9 -116 20 -129 25
-30 78 -47 122 -40 l39 7 -30 -57 c-43 -80 -41 -121 9 -223 50 -101 46 -116
-37 -131 -123 -24 -161 -40 -199 -85 -35 -42 -41 -45 -112 -55 -85 -13 -148
-38 -177 -71 -26 -29 -25 -92 4 -147 l21 -43 -97 -46 c-136 -65 -196 -127
-243 -249 l-35 -90 -80 -8 c-140 -14 -386 0 -505 30 -102 25 -109 25 -227 14
-153 -15 -174 -9 -283 69 -111 80 -138 79 -215 -8 l-41 -45 -34 18 c-51 26
-118 72 -177 122 -43 36 -53 51 -53 75 0 21 -10 40 -34 64 -34 34 -34 34 -129
34 -95 0 -96 0 -144 37 -241 185 -220 176 -419 183 -193 7 -207 13 -309 132
-75 89 -111 111 -178 112 -54 0 -91 -23 -122 -75 -28 -48 -33 -221 -10 -344
20 -109 48 -172 107 -245 25 -30 55 -74 67 -98 l22 -43 -28 -48 c-25 -45 -26
-52 -15 -89 18 -59 45 -87 116 -118 53 -23 65 -33 70 -55 11 -59 106 -196 198
-289 52 -52 62 -71 73 -145 11 -74 36 -116 119 -189 l75 -67 -20 -45 c-33 -79
-27 -90 104 -188 42 -32 77 -60 77 -61 0 -1 -7 -19 -15 -38 -19 -45 -7 -80 32
-101 15 -8 37 -27 49 -43 12 -15 49 -58 83 -96 33 -37 61 -76 61 -86 0 -21 97
-116 158 -155 41 -25 43 -29 35 -59 -16 -68 -9 -93 51 -172 32 -41 78 -93 102
-114 36 -32 45 -48 60 -105 21 -86 45 -114 105 -125 26 -4 62 -19 80 -32 24
-17 48 -24 80 -25 38 0 53 -6 78 -30 29 -27 31 -34 31 -97 0 -59 3 -71 25 -92
20 -21 34 -25 83 -25 54 0 64 -4 128 -49 94 -66 110 -86 124 -156 16 -79 43
-130 80 -152 16 -9 30 -20 30 -23 1 -3 9 -48 20 -100 21 -109 26 -114 172
-201 48 -29 90 -60 93 -70 4 -10 1 -35 -4 -56 -6 -21 -11 -64 -11 -95 0 -80
46 -290 81 -370 21 -48 29 -82 29 -125 0 -62 -22 -213 -44 -303 -8 -30 -17
-67 -20 -81 -5 -21 -10 -25 -33 -22 -58 9 -183 -109 -183 -171 0 -15 8 -38 17
-53 10 -14 20 -56 24 -92 6 -54 12 -69 34 -88 l26 -23 -21 -56 c-25 -69 -35
-160 -21 -196 6 -16 24 -36 41 -46 16 -10 43 -37 59 -59 20 -28 50 -51 91 -71
l61 -29 -46 -13 c-32 -9 -57 -25 -84 -56 l-38 -43 -123 59 c-134 65 -209 86
-263 76 -49 -9 -153 -120 -168 -179 -9 -38 -17 -46 -65 -71 -63 -33 -99 -75
-109 -126 -4 -22 -20 -46 -43 -66 l-37 -32 -37 61 -38 61 32 33 31 32 -5 130
c-4 122 -7 133 -29 157 -17 18 -24 38 -25 65 -1 64 -53 109 -139 119 l-50 5
-1 48 c-2 58 -29 92 -86 109 -29 8 -38 16 -38 33 0 12 -10 37 -23 56 -29 44
-77 51 -113 18 -13 -12 -26 -30 -29 -39 -3 -10 -19 -20 -34 -23 -19 -4 -47
-27 -83 -68 -131 -153 -123 -147 -223 -159 -49 -7 -113 -9 -141 -5 -50 6 -51
6 -79 65 -38 79 -75 114 -121 114 -28 0 -42 -7 -59 -27 -15 -19 -27 -26 -39
-21 -11 4 -28 -1 -46 -15 -16 -11 -43 -21 -60 -21 -39 0 -90 -21 -114 -49 -11
-12 -31 -21 -48 -21 -100 0 -138 -87 -104 -235 9 -36 11 -66 6 -75 -5 -9 -12
-52 -16 -96 -3 -43 -15 -110 -25 -149 -23 -85 -24 -189 -3 -284 9 -40 13 -75
9 -79 -4 -4 -28 -7 -53 -7 -35 1 -60 9 -97 33 -30 19 -70 34 -100 38 -27 4
-57 12 -65 19 -55 45 -94 52 -240 40 -73 -6 -113 -4 -174 9 -148 31 -214 16
-303 -67 -27 -25 -67 -54 -90 -66 -23 -11 -48 -30 -57 -42 -13 -19 -18 -20
-47 -10 -17 6 -57 11 -88 11 -33 1 -64 7 -75 15 -25 19 -79 19 -115 0 -16 -8
-40 -34 -54 -57 -24 -41 -30 -44 -130 -76 -111 -35 -167 -75 -167 -119 0 -12
-5 -25 -10 -28 -20 -12 -40 17 -40 57 0 22 -7 56 -16 74 -13 28 -14 40 -5 60
6 14 11 38 11 53 0 38 -68 139 -124 184 -33 28 -48 50 -62 93 -21 65 -53 95
-105 99 -28 2 -35 8 -46 41 -16 46 -66 100 -98 107 -36 6 -193 -20 -219 -37
-14 -8 -26 -29 -30 -49 -4 -19 -29 -68 -57 -109 l-50 -73 6 -90 6 -91 -67 -17
c-72 -19 -120 -41 -179 -81 -27 -18 -44 -23 -69 -19 -27 4 -39 -1 -68 -26 -26
-23 -46 -31 -72 -31 -58 0 -100 -23 -120 -64 -10 -20 -31 -52 -47 -71 -50 -57
-58 -116 -22 -157 10 -11 13 -26 9 -42 -4 -18 6 -54 34 -119 22 -52 40 -100
40 -106 0 -22 40 -51 70 -51 71 0 172 77 189 144 9 38 14 43 32 39 29 -8 44
-50 30 -89 -16 -45 -13 -116 6 -143 19 -27 30 -151 13 -151 -17 0 -40 -58 -40
-103 0 -52 26 -92 67 -100 87 -19 94 -19 116 -5 36 24 113 29 132 8 8 -9 15
-24 15 -33 0 -25 37 -57 65 -57 16 0 28 -7 31 -17 20 -62 58 -90 105 -78 21 5
32 -2 65 -42 22 -26 45 -62 51 -79 6 -17 31 -61 57 -97 58 -86 70 -129 61
-236 -8 -101 13 -259 46 -348 12 -32 30 -94 41 -138 27 -108 77 -172 171 -221
46 -24 47 -25 47 -73 0 -39 7 -59 35 -101 26 -39 38 -70 45 -119 6 -44 22 -92
50 -145 22 -43 39 -80 38 -81 -2 -1 -73 -6 -159 -12 -264 -18 -296 -45 -358
-306 -30 -121 -116 -348 -167 -434 l-26 -45 -45 44 -44 44 -3 85 c-4 127 -18
152 -129 226 -98 66 -134 83 -172 83 -32 0 -44 26 -52 103 -7 81 8 127 55 172
l37 35 0 107 c-1 156 -24 193 -124 193 l-49 0 -67 85 c-36 46 -71 98 -78 114
-16 38 -161 189 -193 201 -58 22 -139 -3 -180 -56 -8 -10 -18 -12 -35 -6 -23
8 -119 3 -271 -15 -39 -5 -74 -15 -85 -26 -11 -9 -27 -17 -35 -17 -9 0 -29 -7
-44 -15 -16 -8 -54 -17 -86 -21 -72 -8 -90 -27 -96 -99 l-5 -56 57 -59 c31
-32 56 -67 56 -77 0 -10 3 -28 6 -41 7 -24 -2 -29 -466 -248 -183 -86 -300
-150 -520 -281 -234 -140 -264 -163 -612 -467 -62 -54 -56 -70 77 -208 64 -66
123 -131 132 -144 15 -23 15 -26 -8 -51 -46 -49 -215 -185 -317 -254 -56 -39
-108 -80 -116 -92 -18 -29 -28 -72 -70 -307 -39 -213 -48 -246 -100 -395 -42
-116 -43 -142 -16 -307 34 -214 71 -595 81 -838 5 -129 13 -266 19 -305 15
-115 13 -145 -9 -145 -11 0 -82 -28 -158 -62 l-138 -63 -120 3 c-66 1 -259 9
-429 18 l-309 15 -81 -63 c-180 -137 -178 -135 -224 -257 -23 -62 -42 -120
-42 -131 0 -10 -20 -36 -45 -58 -53 -47 -54 -49 -99 -242 -21 -92 -46 -170
-61 -196 -32 -54 -44 -166 -47 -441 l-3 -192 78 -151 c69 -133 115 -259 130
-358 1 -7 -32 -29 -73 -50 -95 -47 -107 -71 -68 -140 33 -60 40 -94 28 -126
-9 -24 -11 -25 -37 -11 -41 22 -65 18 -110 -14 -112 -81 -167 -291 -113 -433
19 -49 19 -54 3 -63 -42 -25 -93 -79 -93 -99 0 -11 14 -48 30 -81 16 -33 30
-71 30 -85 0 -14 7 -52 15 -85 16 -58 15 -60 -9 -115 -28 -63 -26 -87 11 -137
15 -21 26 -52 29 -85 4 -29 15 -65 25 -80 23 -33 25 -91 3 -109 -13 -10 -15
-25 -11 -64 15 -132 49 -177 152 -206 96 -26 130 -61 130 -131 0 -49 2 -53 44
-85 39 -30 47 -33 90 -27 46 6 48 5 73 -33 29 -44 126 -123 151 -123 9 0 51
-9 94 -21 87 -24 153 -22 184 7 34 30 41 6 24 -82 -16 -83 -80 -224 -102 -224
-28 0 -62 -25 -74 -52 -10 -24 -8 -40 7 -96 11 -39 19 -103 19 -153 1 -78 4
-90 28 -122 14 -19 49 -51 76 -72 39 -28 52 -44 57 -71 4 -22 16 -41 33 -52
60 -38 54 -57 -21 -72 -52 -10 -170 -55 -266 -103 -32 -15 -81 -85 -131 -184
-55 -110 -54 -138 4 -215 25 -33 46 -65 46 -71 1 -7 3 -30 4 -51 2 -41 31 -76
63 -76 43 0 120 -99 136 -176 6 -27 3 -32 -28 -49 l-34 -19 -56 57 c-46 46
-66 59 -113 72 -32 8 -82 22 -112 31 -141 41 -217 5 -311 -151 -58 -97 -82
-120 -181 -178 l-76 -45 -198 128 c-169 109 -208 139 -263 201 -87 100 -168
207 -237 313 -69 105 -93 119 -235 137 -91 11 -320 7 -400 -7 l-36 -6 -129
164 c-140 178 -225 271 -354 384 -46 41 -122 118 -169 172 -47 53 -112 124
-146 157 -34 33 -100 114 -148 180 -47 66 -123 161 -167 210 -93 102 -151 205
-151 267 0 105 -128 213 -276 233 -89 12 -102 16 -128 42 -15 15 -35 56 -48
96 -11 38 -33 83 -47 100 -24 27 -35 30 -112 37 -103 10 -172 34 -304 104
-219 116 -414 246 -489 326 -42 45 -43 47 -48 131 -9 146 -64 230 -200 309
l-63 36 -7 57 c-4 32 -15 73 -24 93 -20 43 -87 101 -125 109 -36 8 -37 9 -60
106 -10 44 -38 116 -61 161 -57 109 -57 143 -1 198 55 52 60 84 39 229 -9 64
-16 137 -16 162 0 54 -23 135 -58 204 -48 96 -176 301 -242 390 -37 50 -75
104 -83 120 -38 76 -29 161 21 192 15 9 46 35 70 57 l42 40 0 79 c0 44 5 144
12 224 13 175 12 182 -78 307 -35 49 -64 96 -64 103 0 46 72 92 142 93 114 0
174 77 188 237 13 155 89 278 220 359 65 40 84 62 93 111 15 75 -52 226 -143
327 -79 85 -165 118 -365 136 -60 6 -118 13 -128 16 -26 8 -47 64 -47 127 0
85 -36 145 -134 223 -109 88 -122 113 -119 236 3 140 49 501 68 538 24 47 96
87 240 132 220 69 360 151 486 285 77 83 105 143 135 291 20 96 24 147 24 287
0 195 -13 364 -36 461 -13 56 -13 79 -3 140 22 138 -2 250 -97 452 -57 122
-68 206 -54 414 14 214 8 231 -170 438 -106 123 -130 175 -130 281 0 127 39
235 130 359 26 36 78 115 116 175 126 203 190 278 254 295 49 13 124 -1 262
-51 60 -21 119 -39 130 -39 11 0 127 -25 256 -56 130 -31 270 -59 311 -64 42
-4 84 -11 93 -15 20 -8 53 -50 91 -117 33 -58 69 -78 136 -78 69 0 132 26 240
98 131 87 166 96 322 88 141 -7 164 -2 248 51 101 65 135 66 220 8 l50 -35
268 -15 c147 -8 331 -20 408 -27 227 -19 221 -21 237 98 18 145 -3 234 -86
355 -46 66 -44 83 22 194 46 78 47 82 46 160 0 89 -15 141 -77 280 -37 81 -41
98 -40 165 1 116 62 264 121 294 15 7 86 23 157 35 72 12 144 30 160 39 39 22
81 108 95 192 5 36 10 130 10 210 1 198 8 214 123 269 123 58 156 111 158 251
1 127 29 160 154 180 154 25 217 -6 285 -139 63 -126 89 -141 251 -141 79 0
130 -6 181 -20 126 -35 213 -23 269 36 53 56 137 11 197 -106 39 -77 85 -106
234 -146 68 -18 216 -65 328 -104 159 -56 236 -89 345 -150 77 -42 165 -90
195 -105 64 -32 132 -80 252 -182 94 -79 216 -145 301 -163 29 -5 156 -14 282
-19 255 -9 260 -10 368 -84 82 -56 132 -71 217 -64 71 6 115 22 189 67 54 34
233 111 314 135 28 9 96 25 151 35 143 28 219 79 296 200 40 63 105 96 285
146 72 20 157 46 191 60 86 33 219 55 298 47 109 -10 145 6 261 117 55 53 126
115 157 139 31 23 68 58 83 76 37 50 83 150 96 214 17 82 7 234 -21 304 -25
66 -116 207 -180 280 -49 55 -81 74 -141 83 -110 15 -128 27 -229 150 -52 63
-116 149 -141 190 -61 100 -106 144 -204 199 -54 30 -85 54 -89 68 -3 12 -6
78 -6 146 0 150 -12 193 -66 247 -47 48 -102 64 -212 64 -149 -1 -214 -18
-345 -94 -102 -60 -172 -54 -231 18 -54 66 -102 81 -256 80 -98 -1 -142 -6
-205 -24 -126 -36 -135 -36 -197 -1 -83 47 -143 42 -213 -20 -66 -59 -96 -122
-110 -231 -8 -66 -39 -99 -123 -131 -106 -42 -142 -95 -142 -210 0 -93 -19
-273 -36 -342 -28 -111 -113 -212 -227 -266 -90 -42 -116 -45 -173 -18 -72 34
-183 32 -284 -6 -100 -37 -139 -41 -181 -20 -36 19 -160 130 -378 341 -75 72
-152 139 -171 150 -32 16 -66 18 -360 20 l-325 2 -90 -28 c-183 -57 -347 -80
-579 -80 -188 0 -262 10 -340 44 -67 30 -112 81 -251 291 -103 155 -130 203
-193 346 -23 51 -66 79 -124 79 -88 0 -156 43 -184 115 -40 106 12 336 110
483 133 199 494 412 728 429 109 8 134 -4 154 -76 11 -38 29 -68 54 -93 35
-35 42 -38 93 -38 49 0 61 4 92 31 20 18 40 41 46 51 6 11 21 97 34 192 27
200 56 329 86 388 26 51 36 152 20 199 -6 19 -36 59 -66 88 -32 32 -55 62 -55
75 0 13 35 56 94 116 106 107 290 338 391 489 102 153 144 281 145 444 0 58
16 76 150 172 147 106 230 192 286 296 55 104 158 221 257 293 121 87 227 217
342 421 130 230 113 216 583 510 199 124 229 147 277 205 84 105 181 195 241
224 83 41 195 66 334 75 80 5 136 14 155 24 44 23 98 82 251 277 198 253 224
298 224 387 0 53 -10 74 -63 132 -34 38 -39 47 -34 78 8 45 45 94 111 142 84
62 106 94 106 152 0 60 -17 95 -66 139 -50 43 -95 61 -177 70 -80 9 -90 17
-183 141 -95 128 -105 156 -115 328 -13 226 -41 324 -166 596 -118 254 -125
274 -126 336 0 76 43 165 126 255 74 81 122 108 164 92 24 -9 48 -5 143 21
195 54 189 50 487 343 212 208 370 355 396 369 1 1 103 3 226 5 123 2 238 8
256 14 62 20 68 32 268 500 71 166 112 217 212 265 50 23 78 29 167 35 95 5
110 9 134 31 53 49 55 63 52 287 -3 201 -2 208 21 255 13 26 43 70 67 97 65
72 84 122 94 253 10 129 33 211 95 337 61 126 69 185 62 470 -8 350 -30 451
-114 542 -53 56 -103 82 -221 114 -142 39 -268 29 -402 -32 -99 -45 -152 -95
-272 -256 -266 -356 -258 -341 -318 -594 -47 -193 -53 -209 -82 -228 -62 -40
-266 -39 -328 2 -59 38 -119 75 -204 125 -49 28 -120 82 -158 119 -99 96 -99
96 -359 72 -63 -6 -66 -5 -97 25 -32 32 -52 84 -52 133 0 117 -63 204 -200
278 -93 50 -136 93 -222 225 -88 135 -93 158 -92 430 1 267 11 335 73 460 45
90 103 162 164 204 59 40 225 73 382 75 89 2 128 7 152 19 119 62 216 288 217
504 l1 103 -33 32 -32 33 -131 5 c-128 5 -131 6 -155 33 -13 16 -24 32 -24 38
0 5 29 38 63 73 71 70 160 120 246 136 84 16 196 12 239 -7 29 -13 77 -17 214
-21 l176 -4 84 74 c96 86 221 226 249 280 25 49 24 122 -1 207 -27 86 -21 101
73 198 90 94 117 109 155 89 15 -8 36 -24 47 -36 11 -12 36 -30 55 -40 85 -42
168 -33 219 25 36 42 39 70 16 188 -8 43 -15 91 -15 107 l0 27 140 8 c77 4
168 13 202 21 103 22 218 42 306 53 141 18 207 67 282 209 42 80 79 102 210
127 47 9 97 21 111 26 39 15 76 59 113 130 28 54 38 66 72 77 21 8 58 20 80
28 72 25 133 74 200 160 88 113 118 128 208 103z m-12554 -2674 c105 -53 182
-68 345 -69 129 -1 145 1 205 26 36 14 93 32 127 38 87 17 118 5 189 -77 73
-82 179 -162 269 -203 86 -39 130 -71 151 -112 14 -27 16 -67 15 -258 -2 -222
-1 -228 25 -301 45 -128 93 -207 182 -302 46 -49 87 -99 91 -111 5 -11 11 -60
15 -107 8 -96 6 -99 -70 -137 -85 -43 -126 -126 -105 -215 23 -101 112 -206
192 -227 61 -17 109 -6 229 50 58 27 194 78 301 113 326 109 472 147 560 147
41 0 89 -17 89 -32 0 -5 20 -31 45 -57 59 -63 125 -92 229 -98 l81 -6 75 -77
c87 -91 112 -108 171 -118 l44 -8 8 -54 c10 -71 35 -114 70 -118 30 -4 67 -45
67 -75 0 -12 -23 -42 -56 -72 -51 -48 -55 -55 -52 -91 3 -37 6 -41 60 -66 l57
-27 -6 -68 c-3 -38 -7 -70 -9 -72 -2 -2 -27 -11 -56 -21 -67 -21 -108 -70
-115 -134 -5 -40 -2 -48 25 -76 27 -27 37 -30 91 -30 85 0 107 -13 127 -74 9
-28 41 -105 72 -171 58 -127 132 -304 132 -315 0 -4 -44 -26 -97 -50 -54 -23
-99 -44 -101 -45 -2 -2 9 -36 24 -77 24 -66 27 -85 26 -203 -1 -71 2 -148 6
-170 l7 -39 110 -43 c61 -24 161 -60 223 -80 l112 -36 95 18 c155 29 199 12
252 -97 30 -63 35 -68 120 -116 48 -28 113 -60 143 -72 112 -44 139 -101 104
-219 l-15 -52 -40 35 c-21 20 -43 36 -49 36 -13 0 -30 -34 -30 -59 0 -33 -35
-61 -77 -61 -82 0 -84 -3 -78 -89 5 -58 2 -82 -9 -101 -46 -76 -46 -92 7 -154
l34 -39 59 35 c93 57 118 61 303 56 144 -4 172 -8 211 -27 62 -30 133 -84 211
-162 62 -62 68 -72 84 -140 10 -41 19 -75 20 -77 1 -2 51 -7 111 -12 187 -16
218 -32 209 -108 -5 -40 -1 -55 25 -99 27 -47 40 -58 113 -94 45 -23 84 -43
86 -45 9 -8 -69 -153 -98 -183 -45 -46 -51 -68 -51 -189 1 -110 14 -167 46
-203 16 -18 15 -20 -30 -62 -40 -38 -46 -49 -46 -84 0 -46 20 -69 74 -84 48
-13 60 -37 41 -83 -8 -19 -15 -53 -15 -75 0 -36 6 -44 64 -95 58 -52 67 -56
113 -56 l49 0 78 -115 78 -114 173 -125 173 -126 213 -16 c194 -14 217 -14
269 0 31 9 68 16 83 16 33 0 94 -52 102 -88 10 -45 57 -115 115 -168 50 -47
61 -52 115 -58 33 -4 85 -12 117 -18 80 -15 104 -4 147 68 43 71 86 97 134 83
18 -5 52 -9 76 -9 39 0 49 5 91 48 25 26 54 58 62 70 l16 24 134 -95 c190
-135 186 -133 367 -146 84 -6 156 -13 159 -15 6 -7 -40 -69 -214 -287 -150
-189 -141 -184 -299 -194 -163 -11 -310 -49 -390 -102 -54 -36 -155 -133 -222
-215 -49 -61 -79 -83 -277 -207 -357 -223 -388 -245 -451 -313 -33 -35 -82
-102 -109 -149 -27 -46 -50 -85 -51 -87 -5 -6 -232 106 -287 142 l-58 37 0 54
c0 76 -20 95 -100 95 -53 0 -64 -4 -85 -26 -14 -16 -26 -43 -29 -67 -2 -23 -9
-79 -14 -125 -5 -46 -12 -85 -15 -88 -12 -12 -97 36 -150 84 -30 27 -69 53
-86 57 -25 5 -32 13 -37 40 -3 19 -17 48 -30 66 -26 35 -31 89 -15 145 9 31 9
31 -68 70 -66 34 -80 46 -106 91 -26 44 -38 55 -84 73 -62 24 -136 75 -180
125 -29 33 -34 35 -95 35 l-65 0 -11 -54 -11 -54 -45 -5 c-52 -5 -75 -23 -121
-95 -41 -63 -137 -142 -174 -142 -15 0 -38 9 -52 20 -53 42 -90 12 -104 -86
l-6 -46 62 -58 c72 -69 79 -100 31 -125 -33 -17 -39 -33 -42 -120 l-3 -60 -73
-3 -73 -3 7 81 c6 75 5 82 -16 105 -30 31 -82 48 -122 40 -21 -5 -67 -42 -143
-116 -70 -67 -123 -110 -141 -114 -69 -16 -79 -22 -91 -56 -7 -19 -12 -57 -12
-85 -1 -28 -6 -76 -12 -107 -14 -67 -8 -95 28 -137 22 -26 26 -41 25 -84 -2
-60 -44 -212 -65 -233 -17 -17 -133 -34 -162 -23 -17 6 -20 17 -20 66 0 56 -1
59 -27 62 -18 2 -37 -6 -61 -27 l-35 -31 -6 -127 c-9 -163 -9 -163 -52 -163
-21 0 -42 -8 -55 -21 -19 -19 -21 -29 -15 -80 4 -45 2 -61 -10 -73 -29 -29
-57 -19 -110 41 l-51 57 -81 -11 c-53 -8 -100 -22 -138 -43 -81 -43 -126 -38
-126 14 0 22 -5 26 -27 26 -15 0 -49 -7 -75 -16 -38 -13 -52 -14 -76 -4 -30
12 -30 12 -30 99 0 118 -12 136 -87 128 -100 -10 -129 -50 -140 -189 -6 -80
-6 -80 -47 -110 -23 -17 -58 -38 -79 -46 -38 -15 -56 -48 -41 -74 4 -7 43 -71
88 -142 74 -118 87 -133 147 -172 87 -57 95 -76 112 -293 12 -152 12 -183 0
-238 l-15 -63 -46 1 c-26 0 -77 3 -113 7 -57 7 -73 13 -115 48 l-49 41 -195
11 c-107 6 -216 17 -242 23 -47 12 -48 14 -110 121 -36 63 -81 126 -106 150
-39 36 -48 39 -85 36 -23 -3 -50 -8 -59 -12 -17 -7 -18 1 -18 97 l0 105 -70
51 c-39 28 -79 51 -89 51 -11 0 -31 -15 -46 -32 -14 -18 -33 -41 -41 -50 -17
-21 -34 -23 -58 -5 -17 13 -17 15 4 58 12 24 42 62 66 84 32 29 46 50 50 76 6
33 1 41 -61 111 -37 42 -77 79 -88 82 -12 3 -74 6 -137 6 l-116 0 -49 50 -48
49 2 170 c3 194 -5 223 -66 258 l-36 21 -1 85 c-1 105 -19 137 -85 150 -29 6
-47 16 -59 35 -27 43 -30 45 -177 110 -49 22 -115 43 -145 47 -56 7 -156 53
-185 85 -15 17 -12 21 49 76 37 31 66 66 66 75 0 38 -64 47 -161 23 -24 -5
-26 -3 -22 18 3 17 28 39 86 76 73 45 128 66 230 87 22 4 27 11 27 34 0 33
-50 80 -114 106 -47 20 -205 20 -313 -1 -106 -20 -131 -10 -153 58 -15 46 -15
46 -68 53 -52 6 -130 42 -218 97 -34 22 -42 33 -48 68 -9 55 -29 93 -60 114
-41 26 -34 59 25 121 66 70 66 98 -5 136 -26 15 -52 33 -57 40 -5 8 -8 50 -8
95 1 45 -4 91 -10 102 -18 35 -64 52 -135 52 -59 0 -67 3 -82 25 -23 35 -45
38 -111 16 l-58 -20 -95 94 c-89 87 -99 95 -160 110 -106 27 -100 17 -100 168
0 112 -3 137 -19 163 -25 41 -80 66 -160 71 -63 5 -68 7 -118 56 l-53 51 -1
171 c0 163 -3 192 -28 313 -6 29 -14 96 -17 148 l-7 95 57 52 c42 39 58 62 62
88 5 28 14 39 47 57 23 12 73 51 111 85 l69 63 -6 58 c-7 72 -32 120 -126 242
-69 90 -106 158 -94 177 2 4 27 19 54 33 27 13 48 28 45 33 -3 4 -37 18 -76
32 l-71 24 3 84 3 85 -71 30 -72 31 -20 90 c-12 49 -26 121 -33 158 -10 56
-18 73 -45 97 -36 32 -106 50 -190 50 -109 0 -147 36 -182 173 -12 44 -32 93
-47 113 -15 19 -24 41 -22 49 3 7 63 57 134 109 182 137 402 245 653 321 228
70 720 232 815 270 79 31 315 184 418 270 106 89 195 228 249 390 22 68 23 81
22 375 -1 458 -19 522 -199 735 -37 43 -71 88 -76 99 -5 12 -18 68 -29 124
-10 57 -30 123 -43 146 -46 82 -289 349 -406 444 -22 19 -52 58 -67 88 -26 53
-26 58 -14 112 8 34 14 130 14 237 l2 180 47 90 c26 50 79 133 117 185 97 130
111 163 121 284 4 56 8 102 9 104 0 2 26 29 58 60 31 32 69 72 84 90 34 42 60
41 148 -3z m-16319 -3537 c152 -99 155 -100 329 -109 85 -4 310 -22 500 -39
l345 -31 39 -46 c44 -51 103 -82 156 -83 44 0 125 -38 174 -80 47 -42 78 -96
106 -187 29 -94 72 -144 164 -190 105 -52 194 -113 271 -182 122 -111 336
-240 398 -241 52 0 113 -79 145 -185 28 -92 51 -114 135 -125 112 -16 274 -92
407 -190 132 -98 201 -142 264 -167 81 -33 219 -125 276 -185 25 -26 66 -69
91 -95 25 -26 86 -71 135 -100 123 -72 160 -99 190 -138 14 -19 63 -125 109
-235 46 -110 94 -216 109 -234 42 -56 97 -76 207 -76 124 0 132 -6 137 -96 7
-130 -4 -122 327 -274 175 -81 240 -116 315 -173 125 -93 200 -166 268 -257
30 -41 115 -136 187 -210 72 -74 199 -209 282 -300 265 -290 308 -326 454
-375 128 -44 244 -140 290 -242 31 -67 60 -94 151 -137 68 -32 108 -75 173
-184 66 -111 143 -210 191 -247 26 -20 71 -39 127 -54 99 -26 170 -66 268
-151 89 -76 129 -97 237 -120 216 -47 448 -71 682 -72 l225 -1 145 73 c79 40
158 83 175 96 l31 24 50 -34 c27 -18 62 -41 77 -50 34 -21 62 -81 72 -154 9
-65 21 -78 89 -92 30 -6 60 -17 66 -25 8 -10 9 -44 2 -127 -5 -62 -8 -116 -5
-120 2 -5 28 -8 58 -8 61 0 61 -1 71 -95 4 -40 13 -70 23 -79 9 -8 50 -27 91
-43 l75 -28 12 -55 c7 -30 22 -117 33 -193 18 -123 26 -149 65 -225 47 -94 80
-124 155 -141 54 -12 57 -16 41 -54 -35 -85 -42 -114 -44 -190 -1 -58 4 -102
18 -151 22 -75 26 -78 116 -96 56 -11 56 -11 114 -95 32 -47 63 -85 70 -85 31
0 79 47 91 89 8 27 30 62 57 90 52 53 67 80 67 115 0 14 4 27 9 30 5 4 38 -4
72 -16 54 -20 65 -28 72 -53 5 -18 23 -40 44 -53 39 -26 59 -66 69 -139 6 -49
8 -52 55 -73 57 -27 92 -62 113 -112 24 -56 20 -108 -9 -148 -45 -60 -27 -110
39 -110 17 0 31 10 47 37 l23 37 27 -62 c26 -57 31 -62 59 -62 l31 0 -7 -72
c-3 -40 -10 -81 -15 -90 -11 -21 -104 -78 -190 -116 -82 -37 -128 -89 -171
-195 -39 -95 -84 -140 -201 -199 -68 -34 -81 -45 -97 -81 -28 -61 -25 -158 10
-348 l31 -163 -23 -93 -22 -93 48 -49 c38 -39 47 -54 44 -77 -3 -29 -12 -35
-89 -69 -47 -21 -123 -85 -112 -95 21 -19 425 -70 559 -70 l91 0 65 -73 c69
-77 81 -102 93 -209 9 -81 60 -178 157 -298 47 -58 93 -111 102 -119 23 -20
50 -74 70 -143 20 -70 20 -108 1 -155 -24 -56 -19 -89 24 -151 21 -32 46 -64
54 -71 9 -7 27 -31 41 -54 39 -67 87 -97 234 -146 51 -17 104 -37 118 -44 l24
-13 -90 -144 c-50 -80 -116 -177 -146 -216 -56 -74 -96 -153 -115 -228 -10
-41 -22 -54 -124 -135 -63 -50 -123 -104 -134 -119 -26 -37 -54 -108 -91 -235
-34 -113 -62 -153 -118 -163 -30 -6 -38 -2 -75 33 -23 22 -71 62 -106 89 -48
37 -81 76 -134 154 -38 58 -73 109 -77 113 -10 11 -318 -51 -347 -70 -27 -18
-53 -72 -53 -110 0 -55 -90 -118 -213 -149 -34 -9 -74 -23 -89 -30 -40 -21
-75 -73 -88 -129 -11 -47 -50 -125 -87 -172 -24 -30 -187 -57 -311 -51 -83 3
-90 6 -151 46 -35 23 -70 42 -76 42 -10 0 -70 -63 -95 -101 -5 -7 -33 -3 -118
16 -22 5 -23 8 -17 73 l7 67 -88 23 c-100 25 -130 27 -171 11 -15 -6 -59 -15
-97 -20 -37 -5 -83 -18 -101 -29 l-33 -20 -36 45 c-33 40 -42 45 -78 45 -25 0
-70 -13 -117 -34 -145 -66 -264 -70 -378 -15 -62 30 -62 30 -145 18 -79 -11
-283 -8 -354 7 -31 6 -33 4 -75 -70 -24 -42 -46 -76 -50 -76 -9 0 -234 78
-275 95 -58 24 -182 136 -315 284 -129 143 -133 150 -219 321 l-88 176 -191
174 -192 175 -78 161 c-44 92 -94 178 -115 202 -21 23 -86 72 -145 108 -153
96 -189 127 -197 172 -9 47 -60 195 -85 243 -13 26 -84 89 -244 215 l-225 179
-51 90 c-66 117 -151 234 -217 301 -85 87 -187 129 -422 174 -58 12 -108 24
-111 28 -32 33 -272 425 -280 456 -7 27 -9 72 -3 131 4 50 8 135 8 190 1 89
-2 107 -26 158 -62 132 -225 296 -578 582 -129 105 -273 228 -321 275 -76 76
-96 104 -189 270 -57 102 -128 224 -157 272 l-54 87 -77 29 c-42 16 -116 44
-163 62 l-85 32 -97 195 c-66 131 -137 253 -219 376 -108 160 -131 203 -194
356 -40 95 -80 182 -90 192 -17 16 -55 20 -294 35 -168 10 -288 21 -307 30
l-33 13 0 124 c0 103 4 137 25 207 14 46 25 89 25 95 0 6 -36 73 -81 148 -58
98 -88 139 -104 143 -13 3 -67 0 -121 -6 -55 -7 -154 -13 -220 -13 l-122 -1
-70 46 c-73 49 -90 74 -73 107 16 29 13 93 -5 119 -21 31 -72 55 -233 111
-231 79 -271 114 -271 231 0 92 -11 124 -101 306 -78 157 -83 164 -172 250
-51 49 -161 172 -244 274 -104 127 -191 221 -277 299 -69 63 -126 119 -126
124 0 6 20 37 45 68 27 34 45 68 45 83 0 14 -21 78 -46 141 -26 64 -45 118
-43 120 3 2 40 17 83 32 44 16 81 34 83 39 2 5 -41 74 -96 153 l-99 143 61 47
c89 66 121 120 137 223 13 89 37 155 63 176 27 23 90 25 200 7 105 -17 106
-17 135 4 19 13 32 33 36 54 3 18 31 67 61 109 30 42 55 82 55 90 0 8 -20 72
-45 142 -43 122 -46 138 -57 292 -9 140 -8 175 6 246 9 46 25 175 36 288 21
210 34 272 109 515 l39 126 -49 307 c-27 169 -49 311 -49 315 0 7 14 -1 191
-115z m10332 -325 c127 -149 241 -248 422 -365 55 -35 108 -76 118 -91 12 -18
17 -47 17 -92 0 -141 70 -204 228 -205 102 0 130 -15 185 -96 25 -38 91 -118
147 -179 64 -70 113 -135 136 -178 43 -84 95 -142 139 -157 40 -13 57 -6 126
52 26 21 64 45 84 54 51 21 72 5 121 -93 44 -89 100 -155 159 -186 37 -21 54
-22 245 -22 226 0 257 6 316 58 20 16 46 52 60 79 14 27 31 51 40 55 21 8 62
-11 154 -73 126 -83 229 -104 316 -65 64 29 99 80 123 179 25 100 60 166 102
188 24 12 49 14 122 8 179 -12 262 19 422 159 61 53 113 97 117 97 17 0 61
-84 78 -149 36 -142 74 -176 207 -183 96 -6 174 -32 191 -65 5 -10 15 -47 21
-83 7 -36 21 -105 33 -153 l20 -88 72 -33 73 -33 -5 -84 -4 -85 56 -17 c31
-10 56 -21 56 -26 0 -4 -16 -15 -35 -24 -41 -19 -44 -41 -16 -102 18 -40 102
-158 147 -205 29 -31 50 -81 58 -141 l7 -46 -68 -64 c-38 -35 -87 -73 -111
-83 -25 -12 -42 -26 -42 -36 0 -40 -24 -82 -59 -105 -59 -37 -68 -65 -59 -191
5 -59 15 -133 24 -163 10 -38 17 -120 21 -256 l5 -200 60 -61 c46 -47 65 -60
83 -57 12 3 49 -1 81 -7 43 -9 67 -21 92 -46 l34 -34 -4 -129 c-4 -156 -1
-161 105 -186 70 -17 74 -20 173 -117 l101 -100 41 21 c54 28 83 26 112 -4 20
-21 32 -25 85 -25 48 0 70 -5 96 -23 l34 -23 3 -96 c3 -104 7 -113 73 -146 60
-31 60 -45 2 -104 -72 -74 -75 -95 -24 -151 32 -34 44 -57 52 -101 l12 -56 86
-52 c56 -34 109 -58 155 -68 64 -15 71 -19 81 -50 26 -76 78 -93 205 -65 80
18 209 19 262 3 45 -13 125 -79 115 -95 -4 -5 -29 -13 -57 -16 -61 -7 -124
-34 -208 -89 -65 -42 -82 -67 -82 -119 0 -34 4 -35 61 -9 51 23 102 26 118 7
8 -10 -3 -24 -51 -63 -85 -68 -90 -79 -53 -110 59 -49 129 -83 185 -90 30 -3
89 -21 130 -39 41 -18 93 -41 115 -50 22 -9 58 -36 81 -61 32 -34 48 -44 72
-44 50 0 67 -36 66 -138 l-1 -83 42 -29 c64 -44 69 -65 62 -259 l-7 -167 53
-52 53 -52 124 0 c79 -1 133 -5 146 -13 11 -7 44 -38 72 -70 69 -76 71 -107 7
-160 -46 -39 -85 -101 -85 -136 0 -25 36 -51 72 -51 21 0 35 10 59 43 44 60
54 64 93 29 19 -16 48 -38 65 -48 l31 -18 0 -123 c0 -68 2 -123 5 -123 2 0 21
11 41 25 20 14 47 25 60 25 37 0 93 -63 163 -185 36 -61 91 -143 124 -184 l60
-74 -2 -101 c-2 -113 4 -138 48 -189 l31 -34 -22 -28 c-17 -22 -22 -44 -25
-109 -6 -122 -6 -123 -55 -131 -24 -4 -59 -19 -78 -35 -20 -15 -58 -39 -86
-53 -61 -31 -69 -40 -97 -113 -12 -31 -30 -62 -38 -67 -25 -16 -61 -1 -106 43
-61 58 -95 50 -122 -29 -6 -19 -29 -58 -51 -86 -55 -72 -239 -249 -281 -271
-27 -14 -69 -19 -219 -25 -102 -4 -198 -10 -215 -15 -16 -4 -51 -29 -76 -56
l-45 -48 -37 15 c-34 14 -39 14 -74 -5 -61 -32 -97 -26 -182 29 -57 37 -95 53
-153 66 -42 9 -86 14 -98 10 -11 -3 -45 -38 -76 -76 -69 -85 -89 -92 -208 -73
-87 14 -138 33 -153 56 -4 7 -10 51 -13 98 l-5 84 -45 34 c-25 19 -49 46 -54
61 -12 36 -35 60 -79 82 -21 11 -42 31 -48 47 -12 31 -5 106 16 177 25 82 -15
114 -152 123 -116 7 -119 10 -115 121 l3 90 -38 18 -38 18 -5 86 c-6 98 -19
124 -59 114 -31 -8 -77 -49 -98 -88 -28 -54 -135 -83 -212 -56 -36 13 -37 18
-15 76 16 40 16 46 0 85 -9 24 -28 56 -41 73 l-24 30 -33 -32 c-18 -18 -62
-53 -98 -80 -62 -46 -65 -51 -88 -125 -34 -109 -43 -112 -312 -113 -113 0
-210 -3 -217 -8 -6 -4 -19 -27 -29 -52 -18 -49 -23 -51 -112 -58 -63 -5 -86
-23 -149 -119 -42 -65 -82 -98 -119 -98 -10 0 -37 12 -62 26 -43 25 -45 26
-62 8 -9 -11 -22 -38 -29 -62 -7 -26 -29 -61 -57 -89 l-44 -47 -35 34 c-33 32
-36 33 -112 31 l-78 -1 -33 55 c-32 52 -35 55 -74 55 -31 0 -60 12 -123 50
-106 64 -135 97 -135 154 0 60 -26 81 -94 80 -28 -1 -69 -9 -90 -18 l-39 -16
-47 50 c-40 44 -51 50 -86 50 -41 0 -87 -24 -114 -61 -16 -21 -19 -21 -151 -9
-111 10 -146 17 -203 42 -63 28 -77 30 -150 26 -51 -3 -98 -12 -126 -25 l-45
-20 -125 62 c-120 60 -129 62 -220 68 -52 3 -122 14 -155 25 -33 11 -93 23
-133 27 l-74 7 8 75 c3 41 7 82 8 91 1 12 -10 18 -38 22 -37 5 -40 8 -61 65
-12 32 -27 61 -33 63 -6 2 -24 -17 -42 -42 -34 -51 -33 -50 -61 -36 -25 14
-24 23 5 68 36 54 41 85 21 145 -23 72 -54 109 -119 143 -43 22 -56 34 -56 52
0 59 -23 112 -64 149 -22 20 -46 50 -52 67 -9 25 -22 34 -77 54 -87 32 -112
26 -120 -29 -4 -29 -16 -52 -40 -78 -50 -51 -87 -110 -87 -137 0 -22 -33 -54
-56 -54 -7 0 -36 36 -66 80 -52 78 -54 79 -108 90 -91 18 -95 21 -114 94 -25
90 -19 213 13 274 13 25 21 57 19 75 -3 29 -8 33 -65 53 -34 11 -70 27 -78 34
-9 8 -36 53 -60 100 -36 72 -46 104 -60 200 -9 63 -24 151 -33 194 l-17 80
-84 32 c-91 36 -101 44 -101 86 0 15 -5 50 -11 78 l-11 50 -54 0 -55 0 6 118
c8 139 4 147 -74 162 -65 12 -81 24 -81 59 0 31 -23 119 -38 148 -6 11 -35 35
-64 51 -29 17 -64 40 -77 50 l-24 19 20 34 c12 19 31 70 43 114 16 62 47 125
138 280 165 284 211 378 222 456 6 35 19 229 31 432 l22 367 -37 93 -37 92
-175 130 c-96 72 -181 137 -189 145 -25 27 -56 173 -65 307 -5 73 -16 177 -26
230 -19 118 -75 306 -110 375 -14 28 -121 172 -237 320 -117 148 -224 285
-239 305 -32 41 -43 88 -33 141 5 31 32 62 170 197 189 186 206 213 213 331 5
99 -15 177 -63 249 -57 85 -68 125 -73 285 -4 145 -4 146 22 177 42 50 159
141 243 189 94 53 142 58 176 18 77 -93 97 -110 162 -141 39 -18 91 -47 116
-64 105 -69 261 -59 363 22 28 22 82 67 120 100 85 73 193 129 248 129 33 0
45 -6 71 -37z m11566 -4856 c46 -43 88 -72 132 -91 51 -21 69 -35 84 -63 25
-46 87 -98 142 -119 34 -13 42 -21 38 -34 -3 -10 -6 -44 -6 -75 -1 -45 3 -61
21 -80 12 -13 24 -42 27 -65 4 -26 12 -44 22 -47 55 -17 81 -33 134 -80 57
-51 142 -90 159 -74 11 10 28 107 28 160 0 112 36 157 116 148 25 -2 48 -8 52
-11 3 -4 8 -36 10 -71 l4 -65 72 -43 c39 -23 117 -65 174 -92 68 -32 101 -53
98 -62 -3 -7 -29 -48 -57 -90 -58 -87 -176 -208 -286 -295 -90 -72 -171 -169
-222 -268 -48 -92 -144 -188 -301 -301 -60 -43 -113 -89 -124 -109 -15 -25
-22 -62 -27 -146 -11 -160 -47 -246 -183 -434 -113 -158 -259 -335 -342 -415
-92 -90 -104 -108 -104 -160 0 -48 12 -69 77 -136 48 -50 55 -62 55 -96 0 -21
-14 -72 -31 -113 -39 -99 -68 -247 -96 -494 -7 -61 -37 -106 -69 -106 -24 0
-53 38 -65 84 -31 125 -150 164 -351 116 -203 -49 -420 -172 -587 -333 -122
-118 -188 -239 -224 -412 -32 -156 -20 -259 40 -342 43 -59 90 -84 177 -94 41
-4 78 -11 83 -14 5 -3 17 -29 26 -58 22 -67 73 -155 206 -352 130 -193 167
-237 226 -272 85 -49 162 -64 359 -70 247 -8 484 22 671 83 50 16 100 25 138
25 33 0 167 0 299 0 277 -1 273 1 381 -112 81 -83 364 -351 394 -372 25 -16
25 -17 8 -52 -26 -54 -31 -106 -15 -145 l15 -35 -41 -20 c-35 -17 -47 -32 -81
-102 -22 -46 -49 -92 -61 -103 -19 -20 -22 -20 -65 -5 -34 13 -78 16 -202 14
l-158 -3 -50 52 c-60 63 -89 67 -174 22 -31 -16 -71 -30 -89 -30 -21 0 -49
-13 -85 -40 -63 -47 -95 -50 -211 -20 -52 14 -108 20 -182 20 -58 0 -114 3
-123 6 -9 4 -34 42 -55 85 -77 153 -137 193 -284 192 -109 -2 -176 -16 -233
-48 -60 -36 -81 -87 -92 -218 -9 -126 -16 -136 -111 -179 -75 -34 -113 -67
-143 -123 -18 -35 -21 -65 -27 -246 -6 -191 -8 -210 -31 -255 -26 -54 -50 -65
-163 -79 -47 -6 -56 -5 -56 8 0 22 -57 67 -85 67 -31 0 -72 19 -79 36 -3 7 -1
28 5 46 16 57 11 134 -12 172 -29 49 -19 83 42 141 27 26 48 52 46 59 -2 6
-31 14 -64 17 -52 5 -69 12 -113 47 -56 45 -84 51 -149 31 -31 -9 -49 -7 -106
10 -49 15 -81 20 -112 15 l-43 -6 0 -112 c0 -61 -4 -116 -8 -122 -11 -18 -49
-34 -77 -34 -17 0 -28 -7 -35 -22 -5 -13 -25 -66 -46 -118 -43 -113 -65 -140
-111 -140 -61 0 -103 32 -103 79 0 24 -37 56 -80 70 -48 15 -170 130 -170 159
0 34 -25 76 -55 92 -39 21 -74 -2 -105 -67 -21 -45 -29 -53 -52 -53 -27 0 -28
2 -28 55 0 51 -3 59 -40 99 -22 24 -40 46 -40 50 0 4 45 58 100 121 55 62 100
115 100 118 0 6 -185 161 -351 294 -76 61 -130 113 -137 130 -20 49 -32 116
-32 183 0 76 20 58 -182 164 l-127 67 -37 -72 c-45 -91 -73 -129 -101 -140
-38 -14 -85 7 -135 63 l-47 53 -78 0 c-71 0 -86 -4 -166 -42 -126 -61 -166
-57 -249 25 -27 25 -48 49 -48 52 0 3 18 16 40 30 22 14 40 30 40 36 0 7 -21
15 -47 18 -100 14 -102 15 -128 65 -13 27 -36 63 -52 81 l-27 33 127 -5 c115
-4 131 -3 152 14 51 40 60 165 19 280 -14 40 -30 77 -34 81 -4 5 -49 15 -100
23 -51 7 -98 18 -106 25 -8 7 -14 30 -14 55 0 69 -31 97 -112 102 l-65 4 -21
92 c-11 50 -24 116 -28 146 -6 43 -18 69 -61 128 -47 67 -53 80 -53 126 0 28
-3 68 -6 89 l-7 37 48 0 c26 0 60 7 75 17 24 14 34 15 55 5 46 -21 67 -14 116
39 l47 51 104 9 c56 4 144 8 193 9 142 0 152 5 298 149 140 137 188 196 206
254 15 44 37 48 72 11 75 -81 156 -70 188 26 18 54 38 78 84 101 23 12 62 37
86 55 24 19 56 34 70 34 56 0 67 20 74 131 5 83 10 106 27 124 27 29 25 57 -6
86 -50 46 -57 73 -50 181 l7 99 -53 66 -52 66 34 -7 c67 -15 186 -25 296 -25
l112 -1 56 -47 57 -46 123 -5 124 -5 16 72 c14 63 15 92 5 224 -16 222 -24
255 -69 297 -21 19 -57 49 -80 65 -30 21 -66 67 -121 153 -44 68 -79 132 -79
141 0 10 18 26 44 38 24 12 60 36 79 53 33 29 36 35 42 108 10 124 36 165 110
176 63 10 70 0 73 -109 4 -84 7 -97 25 -110 27 -19 70 -19 126 1 24 8 44 13
45 12 22 -51 34 -63 69 -66 27 -2 58 6 103 27 36 17 95 36 132 42 61 11 67 10
81 -8 9 -10 30 -37 47 -58 27 -33 37 -39 68 -38 60 2 76 24 76 108 0 78 5 84
66 85 12 0 26 6 32 13 6 7 14 71 18 142 4 72 11 138 16 147 10 20 62 50 71 42
3 -3 3 -30 0 -59 -5 -48 -3 -54 17 -65 30 -16 147 -7 187 14 25 12 34 29 58
108 37 119 40 215 9 250 -40 43 -45 63 -33 115 6 26 13 78 14 114 3 69 17 109
38 109 54 0 95 27 202 131 125 121 146 129 213 89 28 -17 33 -25 28 -48 -3
-15 -6 -54 -8 -87 l-3 -60 73 -8 c60 -7 78 -5 98 8 22 14 24 23 24 85 0 65 2
70 30 90 17 12 35 30 40 40 16 30 -11 81 -69 130 -28 24 -51 51 -51 60 0 24
31 110 39 110 4 0 22 -11 41 -25 19 -14 43 -25 54 -25 49 0 165 95 207 168 32
57 71 82 128 82 28 0 30 3 41 55 l11 55 46 0 c42 0 50 -5 112 -63z m2916
-4837 c64 -34 116 -38 180 -14 111 41 285 57 367 34 24 -7 49 -25 68 -49 85
-105 232 -110 378 -13 68 44 141 62 263 62 84 0 100 -3 130 -23 54 -36 62 -64
68 -239 7 -184 4 -179 137 -254 93 -52 111 -69 149 -139 31 -57 158 -221 237
-308 42 -45 65 -62 110 -77 32 -11 72 -20 90 -20 18 0 46 -8 61 -18 38 -24
140 -162 185 -252 37 -73 37 -75 37 -195 0 -120 0 -122 -38 -199 -33 -66 -49
-86 -115 -139 -42 -33 -112 -96 -154 -139 -43 -43 -89 -83 -103 -88 -15 -6
-73 -10 -130 -10 -114 0 -208 -16 -308 -54 -36 -13 -118 -39 -183 -56 -65 -17
-150 -46 -189 -64 -70 -33 -87 -48 -178 -166 -53 -68 -103 -93 -234 -120 -159
-32 -325 -96 -507 -197 -34 -19 -68 -28 -111 -31 -68 -5 -95 5 -170 63 -83 63
-123 71 -405 85 -248 12 -257 13 -328 42 -82 34 -117 57 -261 175 -55 45 -119
92 -143 106 -323 181 -384 211 -586 283 -114 41 -250 86 -302 99 -52 13 -115
31 -140 40 -46 16 -90 50 -90 70 0 24 -79 121 -119 145 -22 14 -39 30 -37 35
3 13 66 44 90 45 10 0 37 -19 60 -41 72 -73 70 -72 224 -65 89 4 151 2 177 -5
110 -30 107 -32 175 104 37 75 50 92 75 100 17 5 37 16 46 24 16 13 15 18 -3
61 l-20 47 22 58 c18 47 25 57 38 51 44 -18 118 -16 172 6 135 55 202 61 276
28 80 -36 146 -30 252 22 109 54 196 138 242 234 34 72 53 189 65 391 9 149
14 160 87 186 120 44 170 103 181 211 9 97 80 197 138 198 10 0 43 -13 74 -30z
m-12509 -1535 c48 -31 138 -102 200 -157 l114 -100 -34 -41 c-50 -62 -75 -117
-87 -188 -5 -34 -19 -84 -30 -110 l-21 -47 22 -43 c58 -115 112 -164 222 -204
33 -12 58 -26 57 -31 -2 -5 -30 -30 -65 -56 l-61 -47 -11 -72 c-6 -40 -18 -79
-27 -88 -14 -14 -18 -14 -43 2 -84 54 -147 79 -196 78 -28 0 -93 0 -145 0 -83
-1 -97 -3 -118 -23 -13 -12 -23 -27 -23 -34 0 -18 -62 -67 -124 -98 -29 -15
-63 -38 -75 -51 -18 -22 -29 -25 -90 -25 -88 0 -121 -12 -121 -43 0 -31 17
-45 125 -104 180 -98 327 -232 380 -348 44 -96 95 -135 173 -135 49 0 123 -57
180 -139 32 -45 39 -62 35 -89 -5 -30 1 -38 73 -107 55 -52 94 -79 127 -91 52
-17 80 -51 93 -109 4 -16 35 -63 70 -104 49 -56 71 -94 98 -163 l35 -89 -25
-46 c-30 -57 -32 -113 -4 -138 19 -17 26 -17 103 -5 46 7 110 11 143 8 70 -5
92 -17 276 -151 69 -50 172 -119 228 -152 169 -100 195 -118 195 -140 0 -26
-31 -40 -142 -62 l-92 -19 -55 -84 c-31 -47 -56 -91 -56 -98 0 -7 11 -18 25
-24 20 -9 25 -18 25 -48 0 -24 10 -51 26 -76 61 -88 62 -114 10 -163 -37 -35
-47 -77 -48 -203 -1 -182 22 -230 118 -243 38 -5 63 -16 97 -44 47 -40 63 -47
161 -78 52 -15 61 -22 68 -48 16 -57 0 -104 -52 -154 -36 -35 -50 -57 -55 -86
-8 -54 -29 -89 -57 -97 -131 -37 -159 -38 -323 -23 -112 11 -183 23 -238 41
-74 25 -79 28 -102 74 -40 79 -79 102 -197 114 -69 7 -105 6 -116 -1 -10 -5
-22 -34 -28 -64 -8 -40 -14 -53 -25 -49 -8 3 -55 5 -105 5 -84 0 -92 2 -123
28 -57 48 -74 38 -100 -59 -13 -49 -101 -197 -142 -239 -16 -17 -29 -34 -29
-37 0 -4 30 -16 68 -28 37 -13 70 -26 75 -29 4 -4 2 -64 -5 -134 l-12 -127
-46 6 c-70 9 -81 -7 -78 -113 l3 -85 60 -25 c75 -31 77 -33 84 -85 6 -39 9
-43 41 -49 22 -5 46 -21 65 -42 41 -48 64 -57 140 -57 86 0 113 -15 155 -89
32 -56 38 -61 70 -61 19 0 49 -9 66 -19 30 -18 31 -21 26 -71 -5 -50 -3 -53
39 -97 53 -54 109 -88 170 -103 45 -11 48 -14 62 -63 8 -29 13 -53 12 -55 -1
-1 -31 4 -66 13 -35 8 -78 15 -95 15 -41 0 -113 -47 -147 -98 -40 -57 -40
-102 0 -144 49 -53 52 -64 46 -189 -4 -70 -1 -141 6 -183 13 -72 6 -129 -25
-229 -13 -37 -21 -48 -42 -53 -58 -13 -94 -27 -98 -38 -2 -7 2 -43 10 -81 8
-39 13 -72 11 -74 -8 -8 -427 235 -580 337 -497 331 -717 487 -811 574 -55 50
-105 105 -113 122 -10 21 -15 71 -16 151 -1 110 -4 127 -33 200 -73 184 -152
288 -292 387 -154 109 -262 149 -519 194 l-145 26 -85 90 c-47 50 -92 99 -98
109 -7 9 -45 88 -85 175 -39 88 -168 344 -285 571 -210 404 -215 415 -294 650
-44 131 -84 262 -89 291 l-9 53 71 82 c89 104 165 209 190 267 11 25 31 92 46
150 23 91 26 126 27 265 0 154 -1 162 -27 218 -44 93 -140 184 -325 307 -234
156 -359 201 -555 199 -111 -1 -138 -10 -221 -71 l-63 -47 -108 39 c-59 21
-117 46 -129 57 -12 11 -74 65 -138 122 -64 56 -155 145 -202 199 -135 153
-274 283 -372 347 -49 32 -94 62 -99 66 -4 4 9 37 29 73 l37 67 127 -7 c69 -4
131 -7 136 -8 6 0 55 3 110 8 98 7 101 7 150 -21 47 -26 57 -28 160 -27 114 0
142 7 271 64 65 29 93 22 128 -30 29 -44 42 -48 89 -23 18 9 61 22 97 28 36 7
85 18 110 25 42 12 54 11 134 -11 l87 -24 -5 -32 c-4 -18 -9 -48 -12 -67 -6
-34 -6 -34 45 -45 129 -28 124 -29 167 28 21 27 45 50 52 51 7 0 37 -16 66
-36 74 -49 114 -56 243 -44 175 15 214 25 246 62 37 43 70 109 91 179 25 88
53 108 209 155 65 19 141 65 163 99 8 12 18 43 23 69 14 74 31 85 183 117 73
16 143 29 154 29 16 0 39 -27 93 -107 61 -93 84 -118 162 -178 50 -38 95 -78
100 -87 14 -27 87 -24 129 5 41 28 50 47 95 192 21 66 45 136 55 155 22 42 76
95 185 180 75 59 80 66 100 129 29 89 67 162 119 225 35 43 83 117 213 324 17
28 18 28 129 -43z"/>
<path d="M14821 18237 c-6 -6 -11 -44 -11 -91 0 -77 1 -81 46 -154 30 -47 48
-89 51 -116 5 -39 2 -44 -31 -70 -20 -15 -36 -35 -36 -44 0 -9 -7 -36 -17 -60
l-16 -43 77 -114 c86 -127 95 -134 256 -205 80 -36 104 -42 156 -41 44 1 65
-3 74 -14 16 -19 36 -19 109 1 56 16 60 16 115 -5 77 -29 111 -27 133 5 42 60
66 84 83 84 10 0 30 14 44 31 24 28 26 38 26 123 0 123 -19 185 -76 246 -24
26 -44 52 -44 57 0 5 29 38 65 72 36 35 65 69 65 77 0 23 -56 44 -120 44 -54
0 -69 5 -140 46 l-80 47 -128 2 c-105 1 -136 5 -180 23 -38 16 -73 22 -128 22
-56 0 -85 5 -116 21 -84 43 -164 69 -177 56z m128 -82 c62 -30 83 -35 145 -35
49 0 90 -7 131 -22 48 -17 84 -22 182 -24 l121 -1 85 -47 c77 -42 91 -46 151
-46 36 0 66 -4 66 -8 0 -4 -29 -37 -65 -72 -36 -35 -65 -70 -65 -77 0 -6 24
-34 53 -62 64 -60 87 -122 87 -230 0 -87 -9 -107 -59 -127 -25 -10 -47 -30
-66 -59 -15 -25 -33 -45 -39 -45 -6 1 -40 11 -76 24 -65 23 -65 23 -129 5 -51
-15 -67 -16 -79 -6 -8 6 -49 15 -91 18 -64 5 -93 14 -190 59 l-113 54 -70 104
-70 104 13 47 c7 28 25 58 46 77 54 52 44 123 -36 248 -25 40 -31 61 -31 103
0 36 4 53 13 53 7 0 45 -16 86 -35z"/>
<path d="M0 21305 c0 -15 46 -32 57 -22 3 4 3 13 0 22 -8 20 -57 20 -57 0z"/>
<path d="M0 20670 c0 -20 54 -130 63 -130 13 0 3 70 -14 106 -14 29 -49 46
-49 24z"/>
<path d="M4 20455 c-6 -16 31 -54 54 -55 6 0 12 12 12 26 0 14 -4 23 -9 20 -5
-3 -14 1 -21 9 -16 19 -29 19 -36 0z"/>
<path d="M0 18273 c0 -34 5 -41 43 -65 36 -24 42 -25 46 -11 2 10 -11 28 -30
45 -36 29 -29 39 9 12 21 -14 22 -14 22 9 0 19 -8 28 -31 36 -52 18 -59 15
-59 -26z"/>
<path d="M21130 7443 c1 -21 35 -49 71 -58 34 -8 44 -18 67 -60 15 -28 36 -58
47 -68 20 -17 19 -17 -9 -7 -16 6 -31 8 -33 6 -9 -9 32 -55 52 -60 29 -6 98 7
102 20 2 7 -23 31 -55 55 -36 27 -69 61 -85 90 -22 41 -32 49 -64 55 -21 4
-50 13 -65 21 -16 7 -28 10 -28 6z"/>
<path d="M21640 6751 c0 -23 26 -29 50 -11 l25 20 -37 0 c-21 0 -38 -4 -38 -9z"/>
<path d="M26410 3799 c48 -38 57 -40 82 -19 20 17 21 21 8 30 -8 5 -37 10 -65
10 l-50 0 25 -21z"/>
<path d="M30290 10 c0 -13 37 -13 45 0 4 6 -5 10 -19 10 -14 0 -26 -4 -26 -10z"/>
<path d="M30375 10 c8 -13 32 -13 40 0 4 6 -5 10 -20 10 -15 0 -24 -4 -20 -10z"/>
<path d="M30933 3 c9 -2 25 -2 35 0 9 3 1 5 -18 5 -19 0 -27 -2 -17 -5z"/>
</g>
</svg>
